<?xml version="1.0" encoding="UTF-8" standalone="no"?>
<!-- Created with Inkscape (http://www.inkscape.org/) -->

<svg
   xmlns:dc="http://purl.org/dc/elements/1.1/"
   xmlns:cc="http://creativecommons.org/ns#"
   xmlns:rdf="http://www.w3.org/1999/02/22-rdf-syntax-ns#"
   xmlns:svg="http://www.w3.org/2000/svg"
   xmlns="http://www.w3.org/2000/svg"
   xmlns:sodipodi="http://sodipodi.sourceforge.net/DTD/sodipodi-0.dtd"
   xmlns:inkscape="http://www.inkscape.org/namespaces/inkscape"
   width="37mm"
   height="26mm"
   viewBox="0 0 37 26"
   version="1.1"
   id="svg1135"
   inkscape:version="0.92.5 (2060ec1f9f, 2020-04-08)"
   sodipodi:docname="velo2.svg">
  <defs
     id="defs1129" />
  <sodipodi:namedview
     id="base"
     pagecolor="#ffffff"
     bordercolor="#666666"
     borderopacity="1.0"
     inkscape:pageopacity="0.0"
     inkscape:pageshadow="2"
     inkscape:zoom="2.8"
     inkscape:cx="137.24244"
     inkscape:cy="72.794757"
     inkscape:document-units="mm"
     inkscape:current-layer="layer1"
     showgrid="false"
     inkscape:window-width="960"
     inkscape:window-height="983"
     inkscape:window-x="960"
     inkscape:window-y="27"
     inkscape:window-maximized="0" />
  <metadata
     id="metadata1132">
    <rdf:RDF>
      <cc:Work
         rdf:about="">
        <dc:format>image/svg+xml</dc:format>
        <dc:type
           rdf:resource="http://purl.org/dc/dcmitype/StillImage" />
        <dc:title></dc:title>
      </cc:Work>
    </rdf:RDF>
  </metadata>
  <g
     inkscape:label="Calque 1"
     inkscape:groupmode="layer"
     id="layer1"
     transform="translate(0,-271)">
    <g
       id="g1882"
       transform="matrix(0.25694418,0,0,-0.25694418,29.000184,293.94857)"
       style="fill:#000000">
      <path
         d="m 0,0 c -0.426,-0.806 -0.857,-1.617 -1.37,-2.368 -1.304,-1.912 -3.154,-3.131 -5.294,-3.907 -2.501,-0.907 -5.132,-1.122 -7.758,-1.128 -1.088,-0.003 -2.229,0.29 -3.254,0.686 -1.96,0.758 -3.855,1.682 -5.77,2.551 -0.234,0.107 -0.499,0.258 -0.627,0.465 -1.242,2.014 -3.263,3.427 -4.277,5.636 -0.367,0.798 -0.716,1.553 -0.672,2.43 0.14,2.816 0.301,5.631 0.46,8.446 0.006,0.128 0.036,0.269 0.099,0.378 1.922,3.329 3.356,7.063 7.299,8.707 0.647,0.271 1.239,0.676 1.924,1.056 0.951,-1.282 1.115,-2.744 1.545,-4.099 0.276,-0.872 0.449,-1.784 0.796,-2.625 1.099,-2.676 2.269,-5.323 3.386,-7.991 0.198,-0.472 0.216,-1.02 0.415,-1.491 0.16,-0.376 0.47,-0.689 0.853,-1.226 0.872,1.123 0.877,2.055 0.626,2.934 -0.633,2.211 -1.316,4.41 -2.066,6.584 -0.79,2.293 -1.69,4.548 -2.518,6.829 -0.107,0.294 -0.072,0.639 -0.118,1.127 2.127,0.194 4.165,0.709 6.272,0.16 1.014,-0.263 2.127,-0.269 3.059,-0.693 1.237,-0.562 2.451,-1.289 3.481,-2.171 C 0.156,17.148 2.266,13.256 2.275,8.274 2.281,5.257 1.366,2.588 0,0 m -30.701,18.628 c 0.9,2.451 2.579,4.094 4.455,5.7 1.879,1.609 3.416,3.618 5.099,5.456 0.211,0.233 0.393,0.493 0.674,0.85 0.369,-1.331 0.688,-2.489 1.032,-3.736 -0.691,-0.453 -1.185,-0.914 -1.771,-1.135 -1.265,-0.476 -2.293,-1.248 -3.263,-2.157 -0.668,-0.626 -1.38,-1.215 -2.122,-1.752 -0.931,-0.675 -1.653,-1.465 -2.045,-2.578 -0.183,-0.521 -0.587,-0.964 -0.967,-1.563 -0.479,0.401 -0.811,0.68 -1.092,0.915 m -4.235,0.975 c -0.288,-0.256 -0.758,-0.304 -1.467,-0.568 0.545,4.606 1.034,8.739 1.497,12.654 1.009,1.081 2.14,1.121 3.239,1.296 2.571,0.409 5.138,0.852 7.73,1.286 0.724,-1.677 0.734,-3.031 -0.524,-4.296 -2.08,-2.095 -4.073,-4.276 -6.157,-6.366 -1.386,-1.39 -2.849,-2.704 -4.318,-4.006 m 0.464,-4.076 c -2.306,-0.474 -4.631,-0.868 -6.956,-1.243 -0.624,-0.101 -1.278,-0.015 -1.919,-0.015 -0.042,0.174 -0.085,0.349 -0.127,0.523 1.992,2.106 4.068,3.997 7.397,3.229 1.248,-0.287 2.524,-0.447 3.915,-0.687 -0.517,-1.106 -1.355,-1.611 -2.31,-1.807 m -6.459,-8.69 c -0.836,-1.207 -2.149,-1.565 -3.47,-1.507 -1.264,0.055 -2.128,0.95 -2.667,2.087 -0.504,1.065 -0.359,2.153 -0.018,3.353 1.656,1.379 3.569,2.117 6.181,1.627 -0.42,-0.412 -0.631,-0.805 -0.874,-0.826 -1.227,-0.107 -2.257,-0.613 -3.301,-1.346 0.087,-0.66 0.173,-1.301 0.248,-1.867 1.469,-1.304 1.658,-0.735 3.879,0.593 0.718,-0.698 0.5,-1.425 0.022,-2.114 m -7.087,-4.775 c 0.329,1.31 1.076,1.871 2.168,2.444 0.824,-0.605 1.686,-1.238 2.827,-2.077 -1.825,-0.488 -3.292,-0.459 -4.995,-0.367 m -4.388,-0.37 c -0.901,2.063 -0.457,3.623 0.748,4.966 1.598,0.294 2.289,-1.714 4.104,-1.096 -1.314,-1.896 -2.175,-3.896 -4.852,-3.87 m -2.545,8.024 c -0.196,1.568 -0.389,3.117 -0.585,4.666 -0.066,0.518 -0.002,1.112 -0.237,1.539 -1.101,2.006 -2.233,3.998 -3.461,5.927 -0.593,0.931 -1.423,1.712 -2.259,2.695 1.68,2.595 3.71,4.908 6.3,6.928 1.293,-4.679 2.688,-9.102 3.681,-13.616 0.441,-1.998 0.137,-4.18 0.023,-6.271 -0.036,-0.66 -0.552,-1.295 -0.842,-1.928 -0.523,-0.047 -0.911,-0.115 -1.298,-0.107 -0.386,0.009 -0.769,0.094 -1.322,0.167 m -5.083,0.392 c -3.218,-0.411 -6.443,-0.305 -9.658,0.006 -1.423,0.137 -1.623,0.375 -2.453,2.058 1.536,1.749 3.054,3.474 4.567,5.203 1.333,1.523 2.659,3.051 4.134,4.743 3.415,-2.963 4.409,-7.077 4.965,-11.535 -0.587,-0.184 -1.061,-0.411 -1.555,-0.475 m 0.113,-7.478 c -0.455,-1.26 -0.639,-2.687 -1.988,-3.912 -1.927,2.553 -3.706,4.902 -5.472,7.261 -0.186,0.25 -0.296,0.559 -0.548,1.048 1.664,0.393 3.075,-0.408 4.528,-0.364 1.504,0.045 3.009,0.01 4.547,0.01 0.369,-1.669 -0.618,-2.797 -1.067,-4.043 m -4.986,-10.178 c -0.052,0.137 -0.105,0.275 -0.156,0.412 0.943,0.543 1.886,1.085 2.949,1.696 0.357,-0.59 0.645,-1.066 0.97,-1.605 -1.295,-0.804 -2.567,-0.284 -3.763,-0.503 m -0.973,3.015 c -2.941,-0.379 -5.618,-2.016 -8.719,-1.675 -3.08,0.34 -5.852,1.359 -8.486,3.208 1.007,2.208 2.833,3.755 4.267,5.583 1.412,1.802 2.942,3.512 4.483,5.337 1.825,-0.657 3.077,-1.798 4.146,-3.157 1.828,-2.323 3.638,-4.661 5.442,-7.003 0.235,-0.305 0.393,-0.672 0.677,-1.17 -0.623,-0.403 -1.181,-1.042 -1.81,-1.123 m -19.778,-1.965 c 1.57,0.201 1.57,0.201 3.258,-0.904 -1.153,0.008 -2.125,0.008 -3.258,0.904 m -1.841,7.469 c -1.688,3.075 -3.085,6.272 -2.933,9.9 0.117,2.785 0.67,5.383 2.079,7.914 1.659,2.977 4.091,4.987 6.917,6.518 1.995,1.08 4.249,1.718 6.651,1.02 0.8,-0.231 1.705,-0.173 2.557,-0.131 2.413,0.119 4.243,-1.109 6.229,-2.556 -1.451,-1.621 -2.787,-3.07 -4.075,-4.56 -1.765,-2.042 -3.507,-4.104 -5.227,-6.185 -0.372,-0.45 -0.581,-1.031 -0.908,-1.523 -0.867,-1.307 -1.591,-2.763 -2.674,-3.863 -2.371,-2.409 -4.464,-5.013 -6.331,-7.817 -0.067,-0.101 -0.21,-0.152 -0.493,-0.349 -0.582,0.513 -1.416,0.947 -1.792,1.632 M -44.83,33.67 c -0.469,-0.207 -1.018,-0.255 -1.539,-0.315 -1.096,-0.126 -2.194,-0.239 -3.294,-0.315 -0.788,-0.055 -1.587,-0.113 -2.368,-0.042 -1.322,0.12 -1.53,0.434 -1.638,2.078 3.153,-0.128 6.161,-0.249 9.419,-0.382 -0.254,-0.475 -0.342,-0.92 -0.58,-1.024 m -4.889,-22.286 v -1.82 c -0.443,0.053 -0.626,0.074 -0.919,0.108 0.255,0.617 0.488,1.178 0.72,1.738 0.066,-0.008 0.133,-0.017 0.199,-0.026 m 5.055,4.714 c -0.098,-0.831 -0.187,-1.601 -0.295,-2.526 -0.528,-0.336 -0.984,-1.09 -1.974,-0.697 -1.472,5.556 -2.945,11.114 -4.446,16.777 2.003,1.289 4.402,0.906 6.632,1.566 0.498,-1.881 0.239,-3.645 0.087,-5.398 -0.211,-2.42 -0.52,-4.832 -0.703,-7.253 -0.106,-1.386 -0.032,-1.392 0.699,-2.469 M -56.18,36.947 c -1.255,0.262 -2.202,0.83 -2.968,1.76 -1.065,1.291 -0.992,2.245 0.261,3.707 0.364,0.018 0.631,0.003 0.888,0.048 1.939,0.337 3.694,1.237 5.893,0.548 1.803,-0.566 3.923,-0.044 5.891,-0.179 2.879,-0.199 5.753,-0.51 8.617,-0.866 0.884,-0.11 1.729,-0.525 2.612,-0.807 0.087,-1.593 -0.285,-2.976 -0.634,-4.37 -0.206,-0.823 -0.354,-1.669 -0.434,-2.514 -0.338,-3.597 -0.611,-7.2 -0.992,-10.792 -0.053,-0.497 -0.473,-1.107 -0.903,-1.385 -1.617,-1.046 -3.063,-2.249 -4.265,-3.762 -0.391,-0.492 -0.849,-1.077 -1.739,-0.653 0,1.657 -0.215,3.388 0.064,5.035 0.246,1.446 0.261,2.868 0.342,4.306 0.11,1.955 0.219,3.92 1.073,5.601 -0.074,0.943 -0.14,1.772 -0.225,2.856 -0.509,0.095 -1.122,0.316 -1.731,0.305 -3.965,-0.069 -7.868,0.349 -11.75,1.162 m 8.979,10.563 c 0.294,1.122 0.333,2.312 0.501,3.6 0.532,-0.174 0.902,-0.276 1.258,-0.414 3.679,-1.431 7.532,-2.255 11.342,-3.226 0.382,-0.097 0.787,-0.161 1.129,-0.341 0.889,-0.468 1.751,-0.581 2.528,0.13 0.816,-0.431 1.5,-0.793 2.277,-1.203 -0.114,-0.283 -0.232,-0.576 -0.384,-0.947 0.386,-0.452 0.799,-0.936 1.332,-1.561 1.24,0.063 2.582,0.132 3.979,0.204 -0.413,-1.569 0.846,-2.875 1.054,-4.716 -0.13,-0.422 -0.342,-1.103 -0.623,-2.003 -3.736,-0.692 -7.511,-1.392 -11.532,-2.137 0,0.696 -0.069,1.136 0.014,1.544 0.197,0.965 0.495,1.908 0.7,2.871 0.35,1.642 0.333,1.646 -0.575,3.521 -2.255,0.79 -4.728,0.253 -7.116,0.58 -2.342,0.321 -4.7,0.532 -7.159,0.804 0.42,1.056 0.972,2.142 1.275,3.294 m -0.853,36.252 c 0.225,0.793 1.008,1.536 1.716,2.06 1.541,1.142 3.37,1.441 5.256,1.276 1.803,-0.157 3.887,-2.42 4.026,-4.332 0.043,-0.586 0.007,-1.178 0.007,-1.662 -0.696,-0.752 -1.45,-0.452 -2.149,-0.479 -1.043,-0.04 -2.102,-0.007 -3.122,-0.185 -0.984,-0.17 -1.82,-0.726 -2.409,-1.515 0.32,-1.565 0.32,-1.565 1.686,-1.554 -0.062,0.366 -0.123,0.714 -0.199,1.162 1.893,1.599 4.138,0.507 6.278,0.81 1.023,-1.487 1.023,-1.487 3.4,-1.8 -0.284,-0.337 -0.45,-0.727 -0.708,-0.803 -0.486,-0.145 -1.026,-0.109 -1.59,-0.151 -0.233,-0.641 -0.451,-1.243 -0.657,-1.808 -0.579,-0.222 -1.098,-0.421 -1.815,-0.696 0.588,-0.517 1.009,-0.888 1.444,-1.271 -0.054,-0.633 -0.416,-0.89 -1.022,-0.949 -0.653,-0.064 -1.305,-0.167 -1.947,-0.298 -1.17,-0.238 -2.326,-0.525 -2.951,-1.873 -1.333,1.076 -2.546,2.056 -3.763,3.038 -0.049,0.116 -0.146,0.237 -0.143,0.355 0.041,1.609 -0.444,3.039 -1.16,4.486 -0.979,1.978 -0.754,4.149 -0.178,6.189 m 13.198,-2.089 c 1.008,-0.801 1.334,-1.506 1.011,-2.271 -0.086,-0.203 -0.369,-0.464 -0.551,-0.455 -0.281,0.013 -0.732,0.179 -0.794,0.38 -0.25,0.803 -0.385,1.647 0.334,2.346 m 6.727,-31.004 c 2.419,-0.072 4.382,-1.206 6.429,-2.098 -0.018,-0.154 -0.035,-0.307 -0.052,-0.462 -0.355,-0.036 -0.71,-0.073 -1.206,-0.125 v -2.458 c -1.093,0.598 -1.41,1.847 -2.622,1.85 -1.032,0.003 -2.065,0.232 -3.189,0.373 -0.148,0.314 -0.311,0.658 -0.527,1.116 0.366,0.566 0.747,1.155 1.167,1.804 M 0.655,19.897 c -0.722,0.666 -1.398,1.396 -2.019,2.159 -1.015,1.25 -2.266,2.145 -3.689,2.883 -1.895,0.985 -4.009,1.233 -5.98,1.943 -1.663,0.599 -3.295,0.77 -4.966,0.014 -0.378,-0.172 -0.862,-0.109 -1.438,-0.169 -0.661,3.057 -1.212,6.022 -1.956,8.939 -0.757,2.972 -1.704,5.896 -2.528,8.705 0.51,0.803 0.899,1.41 1.281,2.02 0.952,1.514 0.314,3.407 -1.356,4.011 -0.989,0.358 -1.963,0.906 -2.981,1.01 -3.016,0.307 -5.625,1.659 -8.357,2.785 -1.675,0.69 -3.244,1.413 -4.634,2.593 -1.306,3.826 -1.939,7.907 -4.039,11.208 0.36,1.452 1.058,2.117 2.284,2.204 0.32,0.022 0.629,0.171 0.946,0.254 3.185,0.844 2.744,0.19 3.341,3.436 0.2,1.083 0.554,1.785 1.763,2.03 1.05,0.213 1.339,0.795 0.922,1.756 -0.41,0.946 -0.423,1.902 -0.57,2.873 -0.11,0.726 -0.456,1.78 -0.988,2.007 -1.237,0.528 -1.748,1.514 -2.298,2.538 -0.869,1.613 -2.408,2.382 -3.939,3.132 -1.161,0.568 -2.373,0.057 -3.487,-0.209 -2.892,-0.69 -5.02,-2.306 -5.53,-5.456 -0.365,-2.26 -0.333,-4.48 0.966,-6.5 0.359,-0.559 0.719,-1.113 0.255,-1.798 -1.45,-0.158 -2.888,-0.266 -4.31,-0.48 -1.765,-0.266 -3.487,-0.718 -5.07,-1.576 -1.061,-0.575 -1.496,-1.398 -1.192,-2.6 0.317,-1.258 0.807,-2.472 1.291,-3.915 -0.004,-0.012 -0.044,-0.291 -0.186,-0.501 -2.278,-3.385 -3.005,-7.419 -4.642,-11.071 -0.106,-0.235 -0.194,-0.503 -0.195,-0.756 -10e-4,-2.549 -0.95,-5.007 -0.52,-7.632 0.187,-1.149 0.171,-2.317 0.706,-3.471 0.534,-0.141 1.078,-0.284 1.682,-0.443 -0.305,-3.443 1.258,-5.442 4.581,-6.035 0.155,-0.615 0.297,-1.174 0.445,-1.763 -2.647,-2.504 -5.247,-4.965 -7.738,-7.323 -1.562,0.726 -2.892,1.486 -4.315,1.981 -3.923,1.365 -7.989,1.714 -12.085,1.129 -1.803,-0.257 -3.642,-0.763 -5.131,-1.899 -2.698,-2.061 -4.923,-4.589 -6.554,-7.566 -1.679,-3.066 -2.066,-6.47 -2.4,-9.901 -0.296,-3.046 0.663,-5.734 1.954,-8.343 0.696,-1.408 1.688,-2.668 2.531,-4.006 0.412,-0.653 0.789,-1.33 1.308,-2.211 0.273,-0.463 -4.004,-3.328 -4.342,-3.573 -1.432,-1.035 -2.047,-2.477 -0.043,-2.987 1.782,-0.454 4.076,-0.323 5.912,-0.329 2.995,-0.009 5.991,0.241 8.985,0.214 4.151,-0.036 8.313,0.308 12.455,-0.26 0.646,-0.089 1.32,-0.047 1.974,0.018 1.764,0.175 3.52,0.453 5.288,0.576 1.205,0.084 2.116,0.566 2.998,1.57 -0.903,2.504 -3.532,3.675 -4.58,5.751 1.368,3.297 2.672,6.437 4.032,9.715 h 1.657 c -0.052,-0.726 -0.024,-1.389 -0.163,-2.014 -0.267,-1.213 -0.609,-2.412 -0.959,-3.605 -0.172,-0.586 -0.321,-1.14 0.157,-1.745 h 2.453 c 0.566,-0.654 1.383,-0.811 2.381,-0.598 0.762,0.161 1.579,0.058 2.37,0.092 0.635,0.027 1.27,0.084 1.796,0.121 0.123,0.24 0.185,0.303 0.176,0.354 -0.068,0.37 -0.15,0.737 -0.245,1.182 1.428,0.147 2.838,0.292 4.099,0.422 1.234,1.813 0.118,2.818 -1.098,3.864 1.39,0.604 2.352,1.351 2.911,2.684 0.562,1.336 -0.395,2.574 -0.004,3.853 2.248,0.48 4.239,1.362 5.988,2.828 0.841,0.706 1.878,0.762 2.919,0.107 -0.326,-1.083 -0.651,-2.082 -0.919,-3.096 -0.151,-0.567 -0.276,-1.156 -0.289,-1.738 -0.039,-1.65 -0.016,-3.302 -0.01,-4.953 0.006,-1.414 0.414,-2.709 1.073,-3.96 1.607,-3.052 4.27,-5.132 6.726,-7.404 0.19,-0.178 0.407,-0.382 0.645,-0.445 3.021,-0.792 5.59,-3.014 8.92,-2.817 2.044,-0.812 4.016,-0.051 6.001,0.291 0.963,0.167 2.005,0.249 2.843,0.69 1.688,0.887 3.275,1.972 4.872,3.024 0.427,0.282 0.793,0.702 1.09,1.126 1.168,1.675 2.342,3.348 3.42,5.081 0.315,0.509 0.64,1.072 0.839,1.646 C 4.244,1.855 4.312,2.145 4.332,2.431 4.538,5.474 5.564,8.44 4.771,11.59 3.989,14.697 3.1,17.646 0.655,19.897"
         style="fill:#000000;fill-opacity:1;fill-rule:nonzero;stroke:none"
         id="path1884"
         inkscape:connector-curvature="0" />
    </g>
  </g>
</svg>
