<?xml version="1.0" encoding="UTF-8" standalone="no"?>
<!-- Created with Inkscape (http://www.inkscape.org/) -->

<svg
   xmlns:dc="http://purl.org/dc/elements/1.1/"
   xmlns:cc="http://creativecommons.org/ns#"
   xmlns:rdf="http://www.w3.org/1999/02/22-rdf-syntax-ns#"
   xmlns:svg="http://www.w3.org/2000/svg"
   xmlns="http://www.w3.org/2000/svg"
   xmlns:sodipodi="http://sodipodi.sourceforge.net/DTD/sodipodi-0.dtd"
   xmlns:inkscape="http://www.inkscape.org/namespaces/inkscape"
   width="37mm"
   height="26mm"
   viewBox="0 0 37 26"
   version="1.1"
   id="svg1135"
   inkscape:version="0.92.5 (2060ec1f9f, 2020-04-08)"
   sodipodi:docname="velo1.svg">
  <defs
     id="defs1129" />
  <sodipodi:namedview
     id="base"
     pagecolor="#ffffff"
     bordercolor="#666666"
     borderopacity="1.0"
     inkscape:pageopacity="0.0"
     inkscape:pageshadow="2"
     inkscape:zoom="2.8"
     inkscape:cx="125.09958"
     inkscape:cy="72.794757"
     inkscape:document-units="mm"
     inkscape:current-layer="layer1"
     showgrid="false"
     inkscape:window-width="1920"
     inkscape:window-height="983"
     inkscape:window-x="0"
     inkscape:window-y="27"
     inkscape:window-maximized="1" />
  <metadata
     id="metadata1132">
    <rdf:RDF>
      <cc:Work
         rdf:about="">
        <dc:format>image/svg+xml</dc:format>
        <dc:type
           rdf:resource="http://purl.org/dc/dcmitype/StillImage" />
        <dc:title></dc:title>
      </cc:Work>
    </rdf:RDF>
  </metadata>
  <g
     inkscape:label="Calque 1"
     inkscape:groupmode="layer"
     id="layer1"
     transform="translate(0,-271)">
    <g
       id="g1878"
       transform="matrix(0.25720774,0,0,-0.25720774,6.3555511,292.26499)"
       style="fill:#000000">
      <path
         d="m 0,0 c -0.377,2.263 -0.311,4.516 0.14,6.797 0.56,2.841 2.124,5.164 3.573,7.54 0.749,1.229 1.973,2.065 3.33,2.65 0.717,0.308 1.496,0.586 2.073,1.08 1.661,1.421 3.682,2.108 5.711,2.384 2.76,0.376 5.596,0.479 8.318,-0.531 2.13,-0.79 2.854,-1.286 4.634,-3.391 C 27.404,16.075 27.041,15.557 26.601,15.113 23.241,11.729 19.846,8.38 16.508,4.974 15.465,3.909 14.512,2.744 13.606,1.556 10.879,-2.027 8.196,-5.645 5.486,-9.241 5.378,-9.386 5.174,-9.458 5.018,-9.563 2.354,-6.875 0.618,-3.717 0,0 m 29.514,14.874 c 1.9,-2.274 4.07,-4.174 4.531,-7.24 0.28,-1.866 0.736,-3.706 1.145,-5.713 -1.464,0 -2.779,-0.033 -4.09,0.01 -1.369,0.044 -2.733,0.178 -4.1,0.242 -1.299,0.06 -2.599,0.09 -3.897,0.117 -1.35,0.029 -2.7,0.039 -4.12,0.058 0.051,0.384 0.043,0.575 0.105,0.74 0.092,0.244 0.195,0.501 0.36,0.697 2.434,2.886 4.851,5.788 7.338,8.628 0.763,0.871 1.726,1.567 2.728,2.461 m 7.011,7.133 C 37.432,17.788 38.8,14.01 38.784,9.981 38.111,9.436 37.429,8.882 36.699,8.291 c -0.634,1.555 -1.152,3.237 -1.983,4.748 -0.806,1.465 -1.932,2.753 -3.003,4.238 1.475,1.582 2.955,3.087 4.812,4.73 m -3.132,11.385 c -1.073,0.57 -2.081,1.323 -2.473,2.621 -0.217,0.714 -0.347,1.386 0.218,2.229 0.993,0 2.094,0.044 3.191,-0.012 1.495,-0.075 2.985,-0.257 4.481,-0.334 0.788,-0.042 1.484,-0.206 2.238,-0.513 1.435,-0.584 2.972,-1.05 4.505,-1.23 1.355,-0.159 2.533,-0.625 3.667,-1.255 2.001,-1.113 3.962,-2.299 5.929,-3.471 0.971,-0.577 1.841,-1.262 2.297,-2.684 -2.988,-5.719 -6.414,-11.388 -10.544,-16.657 -2.127,-0.262 -3.712,1.261 -5.864,1.678 2.837,4.204 5.427,8.391 9.001,11.728 -0.238,0.998 -0.96,1.232 -1.605,1.515 -2.26,0.99 -4.533,1.953 -6.801,2.925 -0.237,0.101 -0.476,0.248 -0.723,0.27 -2.849,0.255 -5.111,1.911 -7.517,3.19 m -3.372,7.46 c 0.876,2.257 1.964,4.378 3.356,6.397 1.245,1.806 2.059,3.916 3.009,5.916 0.419,0.882 0.743,1.815 1.047,2.745 0.948,2.901 3.211,4.591 5.706,5.936 0.904,0.487 2.166,0.469 3.246,0.397 0.515,-0.034 1.099,-0.651 1.459,-1.145 1.266,-1.744 2.492,-3.523 3.085,-5.647 0.612,-2.197 1.81,-4.211 2.035,-6.531 0.072,-0.738 0.563,-1.131 1.182,-1.444 2.323,-1.176 4.638,-2.365 6.951,-3.559 0.631,-0.327 1.242,-0.693 2.007,-1.122 -0.262,-0.594 -0.484,-1.096 -0.686,-1.557 -1.732,-0.355 -3.277,-0.042 -4.76,0.488 -2.519,0.899 -5.004,1.897 -7.508,2.856 -1.98,3.205 -3.964,6.425 -5.968,9.634 -0.08,0.129 -0.346,0.142 -0.645,0.254 -0.363,-0.827 0.116,-1.261 0.416,-1.74 0.694,-1.109 1.336,-2.26 2.12,-3.303 0.992,-1.322 0.701,-2.623 0.016,-3.854 -1.175,-2.109 -2.475,-4.149 -3.707,-6.194 -4.176,-1.036 -8.273,0.037 -12.55,0.143 0.08,0.6 0.059,0.994 0.189,1.33 m 17.242,26.051 c 0.513,0.691 0.673,1.411 0.307,2.2 -0.285,0.614 -0.487,1.207 0.063,1.885 0.533,-0.158 1.079,-0.321 1.58,-0.47 2.225,1.331 2.167,1.195 2.532,3.064 1.134,0.333 2.298,0.675 3.645,1.07 0.154,-0.585 0.391,-1.061 0.382,-1.532 -0.028,-1.49 0.478,-2.652 1.745,-3.491 0.285,-0.189 0.446,-0.567 0.812,-1.056 -1.725,-0.235 -2.482,-1.457 -3.494,-2.393 0.145,-0.237 0.229,-0.412 0.348,-0.56 0.9,-1.125 0.563,-2.132 -0.823,-2.304 -0.904,-0.112 -1.825,-0.146 -2.737,-0.138 -1.629,0.014 -1.629,0.039 -2.98,-0.596 -0.943,0.532 -1.9,1.065 -2.847,1.615 -0.1,0.058 -0.144,0.212 -0.205,0.307 0.558,0.806 1.092,1.62 1.672,2.399 M 59.529,37.26 c 0.497,-0.629 1.046,-1.325 1.606,-2.033 2.511,0.331 4.819,0.907 7.187,2.664 0.131,-1.036 0.27,-1.657 0.272,-2.278 0.002,-0.782 -0.119,-1.563 -0.166,-2.346 -0.046,-0.763 -0.369,-1.342 -0.952,-1.85 -0.568,-0.496 -1.037,-1.103 -1.806,-1.941 -2.09,-0.251 -4.585,-0.551 -7.179,-0.862 -0.06,1.749 -1.046,2.853 -2.366,3.625 -2.65,1.551 -5.335,3.046 -8.053,4.477 -0.667,0.352 -1.511,0.367 -2.275,0.537 -0.873,0.195 -1.745,0.389 -2.744,0.611 1.221,3.025 2.912,5.494 4.464,8.084 0.157,-0.097 0.405,-0.159 0.457,-0.296 0.644,-1.704 1.997,-2.411 3.657,-2.895 1.875,-0.546 3.663,-1.382 5.524,-1.981 2.018,-0.649 4.077,-1.172 6.211,-1.776 -1.049,-0.929 -2.923,-0.085 -3.837,-1.74 m 6.86,0.616 c -1.723,-0.76 -3.151,-1.36 -4.945,-1.039 1.303,1.033 3.403,1.503 4.945,1.039 m 4.649,2.604 c -0.313,-0.982 -0.615,-1.928 -0.94,-2.949 -0.915,0.325 -1.098,1.065 -1.298,2.014 -1.09,0.079 -2.237,0.151 -3.381,0.248 -0.77,0.065 -1.351,0.445 -1.778,1.237 1.988,1.96 4.196,2.714 7.397,-0.55 M 66.637,23.613 C 63.294,21.316 60.937,18.065 58.269,15.107 56.257,12.875 54.15,10.728 52.038,8.589 51.504,8.047 50.79,7.683 49.736,6.938 49.59,7.914 49.459,8.461 49.435,9.014 c -0.039,0.899 0.064,1.808 -0.025,2.7 -0.135,1.348 0.048,2.488 0.901,3.668 1.757,2.434 3.352,4.993 4.904,7.567 0.86,1.426 2.11,2.04 3.632,2.357 2.552,0.533 5.099,1.092 7.651,1.63 0.115,0.024 0.251,-0.044 0.516,-0.098 0.236,-0.575 0.503,-1.222 0.828,-2.012 -0.399,-0.408 -0.743,-0.895 -1.205,-1.213 M 52.967,-6.814 c -1.76,-0.337 -3.258,0.489 -4.755,0.399 -0.958,0.752 -1.066,1.622 -0.701,2.716 1.997,-0.707 3.886,-1.434 5.456,-3.115 m -8.936,3.126 c -0.571,0.536 -1.124,1.056 -1.711,1.608 -0.287,0.96 0.269,1.688 0.808,2.615 0.752,-0.979 1.427,-1.857 2.284,-2.972 0.636,0.942 1.023,1.515 1.499,2.221 0.296,-0.258 0.698,-0.451 0.695,-0.637 -0.007,-0.55 -0.003,-1.237 -0.314,-1.62 -0.815,-1.01 -1.923,-1.521 -3.261,-1.215 m 1.748,-5.389 c -0.016,0.093 -0.033,0.185 -0.05,0.278 0.37,0.085 0.739,0.17 1.107,0.256 0.013,-0.132 0.024,-0.263 0.036,-0.394 -0.364,-0.046 -0.728,-0.093 -1.093,-0.14 m -2.687,1.81 c 0.129,0.781 0.213,1.295 0.296,1.797 0.872,0.214 1.608,0.395 2.486,0.611 0.213,-0.634 0.405,-1.209 0.636,-1.896 -1.136,-0.17 -2.127,-0.318 -3.418,-0.512 m 3.16,9.263 c -1.015,-0.892 -1.3,-0.162 -1.408,0.629 0.419,-0.187 0.837,-0.374 1.408,-0.629 m -2.376,6.939 c 0.485,0.656 0.891,1.205 1.34,1.812 h 2.122 c 0.094,0.212 0.303,0.689 0.513,1.166 l 0.404,-0.236 V 7.271 C 46.78,7.832 45.401,8.355 43.876,8.935 m -2.738,0.243 c 0.244,2.156 0.672,2.482 2.351,1.899 -0.551,-0.844 -1.237,-1.409 -2.351,-1.899 m 4.186,14.399 c 0,-0.452 0.153,-0.954 -0.024,-1.272 -1.237,-2.211 -2.732,-4.251 -4.313,-6.628 -0.861,1.888 -1.232,4.638 -1.013,6.746 1.643,0.551 3.208,1.586 5.35,1.154 m -6.28,1.96 c -0.798,1.318 -0.966,2.509 -0.684,3.883 2.185,-0.191 3.929,-1.332 6.06,-2.552 -1.943,-0.786 -3.602,-1.114 -5.376,-1.331 M 39.553,5.443 C 38.001,5.499 37.881,5.675 38.159,7.567 41.968,8.397 45.274,7.313 48.737,5.389 48.238,5.276 48.018,5.18 47.8,5.186 45.051,5.262 42.302,5.345 39.553,5.443 M 37.199,1.931 c -0.061,0.932 -0.12,1.821 -0.192,2.915 0.806,-0.332 1.425,-0.587 2.17,-0.894 0.329,-0.846 0.629,-1.618 1.052,-2.706 -1.139,0.257 -2.027,0.458 -3.03,0.685 M 29.038,-9.658 c -0.284,0.138 -0.509,0.179 -0.623,0.314 -2.523,2.961 -5.034,5.932 -7.554,8.909 1.213,0.22 11.726,-0.315 13.756,-0.705 C 33.974,-4.728 31.9,-7.367 29.038,-9.658 M 20.724,-13.1 c -2.871,-0.051 -5.74,-0.27 -8.611,-0.332 -1.549,-0.033 -2.835,0.656 -4.06,1.827 1.353,1.846 2.177,3.835 3.843,5.299 0.867,0.763 1.51,1.785 2.238,2.702 0.483,0.61 0.937,1.244 1.491,1.981 1.516,-0.779 2.053,-2.371 3.157,-3.411 1.09,-1.027 2.142,-2.109 3.095,-3.262 0.988,-1.194 1.838,-2.501 2.787,-3.813 -1.282,-0.628 -2.544,-0.966 -3.94,-0.991 m 51.545,30.299 c 0.27,-0.513 0.513,-0.887 0.674,-1.293 1.689,-4.259 3.663,-8.366 6.279,-12.147 0.287,-0.414 0.463,-0.922 0.614,-1.41 0.258,-0.832 0.699,-1.505 1.368,-2.012 0.812,0.33 0.791,0.925 0.573,1.493 -0.514,1.337 -0.984,2.709 -1.67,3.96 -1.067,1.946 -2.048,3.916 -2.827,5.999 -0.408,1.093 -1.053,2.095 -1.54,3.163 -0.46,1.008 -0.853,2.048 -1.255,3.025 0.491,1.561 1.926,1.625 3.043,1.831 4.796,0.885 9.155,0.02 13.003,-3.262 2.822,-2.405 4.445,-5.305 5.279,-8.886 0.575,-2.471 0.861,-4.922 0.507,-7.371 -0.351,-2.439 -0.894,-4.891 -2.252,-7.042 -0.245,-0.388 -0.531,-0.751 -0.755,-1.149 -1.811,-3.197 -4.728,-4.755 -8.168,-5.563 -4.123,-0.969 -8.013,-0.38 -11.768,1.556 -3.975,2.05 -6.726,5.1 -8.003,9.404 -0.464,1.56 -1.041,3.149 -1.119,4.747 -0.127,2.61 0.336,5.113 1.829,7.452 1.471,2.303 2.613,4.808 4.863,6.517 0.407,0.309 0.819,0.61 1.325,0.988 M 1.641,-17.015 c 0.24,-0.029 0.481,-0.046 0.689,-0.058 1.382,-0.084 2.77,-0.143 4.154,-0.129 7.472,0.08 14.944,0.176 22.414,0.321 1.414,0.027 2.837,0.234 4.128,0.754 0.374,0.936 -0.305,1.428 -0.633,2.029 -0.335,0.616 -0.717,1.206 -1.073,1.798 3.149,3.171 5.029,6.906 5.977,11.178 h 3.517 c 0.158,-0.526 0.218,-1.002 0.433,-1.393 0.749,-1.365 1.067,-2.752 0.586,-4.293 -0.1,-0.317 0.124,-0.735 0.202,-1.123 0.638,-0.147 1.199,-0.277 1.7,-0.393 0.813,-1.874 1.014,-2.185 2.315,-2.031 2.376,0.281 4.824,0.028 6.92,0.771 0.585,0.936 1.051,1.685 1.517,2.431 -0.364,1.46 -0.357,1.47 -0.926,1.815 -1.274,0.77 -2.554,1.528 -3.861,2.308 -0.111,1.32 -0.281,2.616 -0.312,3.917 -0.026,1.075 0.271,1.96 1.393,2.571 0.95,0.519 1.72,1.401 2.5,2.19 2.208,2.229 4.379,4.495 6.571,6.74 0.18,0.185 0.416,0.315 0.61,0.488 0.682,0.608 1.396,1.187 2.026,1.846 1.125,1.176 2.132,2.473 3.314,3.586 1.038,0.977 2.247,1.771 3.454,2.702 1.773,0.102 1.773,0.102 2.255,-1.221 -0.59,-0.456 -1.205,-0.933 -1.822,-1.408 -2.511,-1.933 -4.658,-4.175 -6.152,-7.013 -1.158,-2.2 -1.45,-4.596 -1.635,-6.998 -0.119,-1.559 -0.171,-3.179 0.114,-4.703 0.555,-2.984 1.907,-5.698 3.474,-8.281 0.435,-0.716 1.073,-1.321 1.678,-1.916 2.83,-2.781 6.339,-4.343 10.073,-5.431 1.301,-0.38 2.673,-0.608 4.026,-0.694 2.392,-0.153 4.588,0.72 6.763,1.593 3.616,1.454 6.168,4.213 8.249,7.31 2.295,3.414 2.595,7.525 2.713,11.481 0.136,4.563 -1.181,8.797 -4.626,12.081 -1.608,1.532 -3.201,3.112 -4.984,4.422 -2.1,1.542 -4.675,1.986 -7.205,2.356 -1.406,0.206 -2.801,0.332 -4.234,-0.267 -1.292,-0.539 -2.738,-0.706 -4.298,-1.08 -0.132,0.472 -0.396,0.957 -0.375,1.43 0.078,1.788 -0.642,3.296 -1.443,4.816 -0.754,1.432 -1.404,2.92 -2.073,4.395 -0.101,0.222 -0.074,0.513 -0.065,0.77 0.041,1.047 0.099,2.093 0.168,3.506 0.166,0.117 0.547,0.377 0.918,0.649 0.357,0.263 0.792,0.478 1.033,0.824 0.317,0.458 0.711,1.046 0.664,1.54 -0.145,1.542 -0.628,2.957 -2.315,3.558 -0.551,0.197 -1.049,0.544 -1.602,0.731 -0.6,0.204 -1.254,0.475 -1.852,0.413 -2.104,-0.222 -4.016,0.194 -5.809,1.307 -0.495,0.306 -1.096,0.434 -1.614,0.71 -1.434,0.767 -2.867,1.542 -4.261,2.379 -0.29,0.174 -0.469,0.611 -0.6,0.963 -0.86,2.329 -1.637,4.689 -2.558,6.992 -0.505,1.26 -1.182,2.463 -1.89,3.627 -0.444,0.729 -0.484,1.302 0.222,2.043 0.554,0 1.201,-0.017 1.846,0.004 0.655,0.021 1.309,0.075 1.962,0.123 1.771,0.131 2.516,0.861 2.763,2.669 0.096,0.706 0.235,1.405 0.338,2.01 0.739,0.447 1.35,0.817 2.001,1.21 v 1.965 c -1.693,0.93 -2.292,2.39 -2.504,4.198 -0.095,0.804 0.009,1.529 0.069,2.293 0.148,1.904 -0.563,2.781 -2.409,3.071 -0.372,0.058 -0.813,0.128 -1.075,0.359 -1.103,0.969 -2.524,0.941 -3.733,0.834 -1.789,-0.159 -3.333,-1.271 -4.89,-2.171 -0.352,-1.427 -1.724,-1.871 -2.492,-2.533 -0.292,-1.18 -0.56,-2.112 -0.74,-3.06 -0.096,-0.505 -0.215,-1.122 -0.016,-1.543 0.533,-1.128 0.474,-2.239 0.135,-3.352 1.252,-1.226 2.747,-2.226 2.527,-3.96 -1.362,-0.969 -2.446,-1.902 -3.672,-2.576 -2.214,-1.22 -3.442,-3.142 -4.315,-5.396 -0.818,-2.111 -1.295,-4.363 -2.581,-6.283 -0.144,-0.215 -0.214,-0.48 -0.347,-0.703 -0.67,-1.115 -1.315,-2.248 -2.035,-3.331 -1.349,-2.033 -2.008,-4.345 -2.961,-6.582 0.522,-0.423 0.91,-0.737 1.222,-0.991 10e-4,-1.95 0.693,-3.514 1.899,-4.765 -0.325,-1.005 -1.707,-1.395 -1.089,-2.759 1.534,-0.438 2.913,-1.551 4.799,-1.414 0.437,-1.388 0.86,-2.73 1.239,-3.933 -2.137,-2.218 -4.154,-4.311 -6.21,-6.445 -0.62,0.375 -1.162,0.618 -1.605,0.981 -3.299,2.704 -7.083,3.668 -11.318,3.651 C 12.104,23.445 8.146,21.377 4.563,18.39 3.019,17.101 1.719,15.506 0.381,13.985 -0.124,13.412 -0.51,12.693 -0.799,11.979 -1.558,10.105 -2.066,8.154 -2.604,6.203 -3.332,3.561 -3.137,1 -2.513,-1.516 c 0.989,-3.979 2.759,-7.617 5.616,-10.648 0.119,-0.126 0.144,-0.34 0.223,-0.54 -0.224,-0.341 -0.412,-0.691 -0.661,-0.988 -0.561,-0.675 -1.152,-1.294 -1.778,-1.917 -0.998,-0.993 -0.136,-1.294 0.754,-1.406"
         style="fill:#000000;fill-opacity:1;fill-rule:nonzero;stroke:none"
         id="path1880"
         inkscape:connector-curvature="0" />
    </g>
  </g>
</svg>
