<?xml version="1.0" encoding="UTF-8" standalone="no"?>
<!-- Created with Inkscape (http://www.inkscape.org/) -->

<svg
   xmlns:dc="http://purl.org/dc/elements/1.1/"
   xmlns:cc="http://creativecommons.org/ns#"
   xmlns:rdf="http://www.w3.org/1999/02/22-rdf-syntax-ns#"
   xmlns:svg="http://www.w3.org/2000/svg"
   xmlns="http://www.w3.org/2000/svg"
   xmlns:sodipodi="http://sodipodi.sourceforge.net/DTD/sodipodi-0.dtd"
   xmlns:inkscape="http://www.inkscape.org/namespaces/inkscape"
   width="37mm"
   height="26mm"
   viewBox="0 0 37 26"
   version="1.1"
   id="svg1135"
   inkscape:version="0.92.5 (2060ec1f9f, 2020-04-08)"
   sodipodi:docname="velo5.svg">
  <defs
     id="defs1129" />
  <sodipodi:namedview
     id="base"
     pagecolor="#ffffff"
     bordercolor="#666666"
     borderopacity="1.0"
     inkscape:pageopacity="0.0"
     inkscape:pageshadow="2"
     inkscape:zoom="2.8"
     inkscape:cx="80.099578"
     inkscape:cy="72.794757"
     inkscape:document-units="mm"
     inkscape:current-layer="layer1"
     showgrid="false"
     inkscape:window-width="960"
     inkscape:window-height="983"
     inkscape:window-x="960"
     inkscape:window-y="27"
     inkscape:window-maximized="0" />
  <metadata
     id="metadata1132">
    <rdf:RDF>
      <cc:Work
         rdf:about="">
        <dc:format>image/svg+xml</dc:format>
        <dc:type
           rdf:resource="http://purl.org/dc/dcmitype/StillImage" />
        <dc:title></dc:title>
      </cc:Work>
    </rdf:RDF>
  </metadata>
  <g
     inkscape:label="Calque 1"
     inkscape:groupmode="layer"
     id="layer1"
     transform="translate(0,-271)">
    <g
       id="g1870"
       transform="matrix(0.26427203,0,0,-0.26427203,7.0015436,292.02478)"
       style="fill:#000000">
      <path
         d="m 0,0 c -0.01,0.325 -0.002,0.672 -0.11,0.971 -1.385,3.823 0.025,7.337 1.417,10.741 0.822,2.015 2.107,3.913 3.51,5.59 0.92,1.097 2.329,1.952 3.687,2.481 2.811,1.094 5.703,1.476 8.794,0.837 2.406,-0.498 4.578,-1.4 6.739,-2.446 0.225,-0.109 0.411,-0.299 0.586,-0.43 C 24.715,16.739 23.966,16.27 23.455,15.737 20.467,12.626 17.786,9.254 15.014,5.959 14.102,4.876 13.045,3.916 12.11,2.85 11.422,2.066 10.817,1.208 10.186,0.375 8.374,-2.012 6.569,-4.406 4.752,-6.789 4.645,-6.929 4.444,-6.998 4.147,-7.191 2.206,-5.099 0.09,-3.163 0,0 m 26.069,16.582 c 0.412,-0.621 0.118,-1.099 -0.271,-1.586 -1.142,-1.43 -2.266,-2.872 -3.401,-4.307 C 22.154,10.381 21.933,10.042 21.637,9.793 19.822,8.262 18.391,6.399 16.979,4.515 16.874,4.376 16.665,4.316 16.464,4.194 15.933,4.522 15.969,4.933 16.28,5.341 c 0.869,1.137 1.741,2.271 2.649,3.376 1.822,2.22 3.682,4.407 5.493,6.635 0.457,0.564 0.82,1.185 1.647,1.23 m 1.395,-1.606 c 0.549,-0.692 0.937,-1.168 1.312,-1.655 1.879,-2.445 2.879,-5.184 2.739,-8.595 -3.948,-0.311 -7.812,-0.167 -11.914,0.204 1.372,1.742 2.625,3.325 3.869,4.914 1.276,1.631 2.545,3.269 3.994,5.132 m 3.333,7.821 c 0.196,-0.575 0.297,-0.868 0.311,-0.912 -0.778,-1.075 -1.446,-2.003 -2.121,-2.926 -0.305,-0.418 -0.6,-0.914 -1.277,-0.31 0.566,1.646 2.078,2.538 3.087,4.148 m -3.726,13.162 c -0.099,1.645 0.046,3.155 0.447,4.661 0.92,3.46 1.673,6.972 2.754,10.381 0.864,2.721 1.754,5.472 3.313,7.919 0.523,0.822 0.988,1.709 1.952,2.116 3.891,-1.048 8.685,-6.922 9.234,-11.473 -1.261,-0.902 -1.401,-2.725 -2.942,-3.315 -0.989,0.79 -3.486,4.334 -4.57,6.459 -0.229,-1.032 -0.261,-1.071 0.22,-2.021 0.558,-1.108 1.187,-2.18 1.783,-3.269 0.219,-0.401 0.434,-0.805 0.649,-1.209 0.908,-1.705 1.326,-3.327 -0.183,-5.019 C 39.063,40.443 38.969,39.132 38.245,38.508 37.597,37.949 36.43,38.013 35.51,37.741 34.825,37.538 34.157,37.268 33.505,36.977 31.489,36.078 29.36,36 27.071,35.959 m 9.791,29.881 c 0.385,1.08 -0.358,2.374 0.914,3.634 0.468,-0.853 0.906,-1.484 1.175,-2.181 0.346,-0.891 0.877,-1.25 1.945,-0.936 0.559,1.13 1.905,1.871 1.792,3.568 0.152,-0.047 0.303,-0.093 0.455,-0.141 0.188,-0.551 0.376,-1.101 0.553,-1.624 0.885,0.017 0.32,1.572 1.589,1.189 0.135,-1.005 0.277,-2.063 0.436,-3.249 -0.61,-0.635 -1.804,-0.907 -1.853,-2.193 -0.009,-0.222 -0.711,-0.419 -1.151,-0.66 0.178,-0.32 0.323,-0.581 0.468,-0.842 -1.39,-1.783 -2.498,-2.055 -4.532,-1.12 -0.816,0.375 -1.64,0.736 -2.611,1.171 -0.076,1.118 0.415,2.246 0.82,3.384 m 8.405,-17.687 c 0.36,-0.328 0.779,-0.527 0.877,-0.829 0.39,-1.21 1.488,-1.79 2.419,-2.103 4.084,-1.377 8.231,-2.579 12.382,-3.745 1.309,-0.367 2.254,-1.246 3.326,-1.935 0.386,-0.249 0.454,-0.991 0.732,-1.667 -1.353,-0.287 -2.476,-0.525 -3.507,-0.744 -0.29,0.236 -0.5,0.328 -0.58,0.485 -0.989,1.946 -2.76,2.646 -4.746,3.029 -2.375,0.458 -4.745,0.946 -7.121,1.4 -2.323,0.444 -4.556,1.093 -6.701,2.782 1.043,1.189 1.939,2.211 2.919,3.327 m 2.966,-33.958 c 0.524,1.465 0.76,2.954 2.421,3.847 1.397,0.75 2.419,2.161 3.727,3.117 2.617,1.912 4.858,4.304 7.663,5.972 0.263,0.157 0.529,0.306 0.795,0.458 0.089,-0.107 0.178,-0.213 0.266,-0.319 -4.674,-4.665 -9.391,-9.281 -14.872,-13.075 m 17.822,18.383 c 1.128,-1.931 0.287,-4.166 1.391,-6.323 -0.864,0.131 -1.386,0.209 -2.014,0.303 -0.52,-2.057 -2.25,-3.006 -3.663,-4.228 C 59.25,20.152 56.637,18.079 54.173,15.842 50.688,12.68 47.304,9.407 43.872,6.187 43.695,6.022 43.472,5.908 43.133,5.676 42.891,6.322 42.694,6.843 42.474,7.43 c 0.453,0.524 0.826,1.066 1.304,1.487 1.848,1.626 3.652,3.306 5.758,4.616 0.603,0.375 1.096,0.927 1.634,1.404 2.1,1.859 4.01,3.931 6.341,5.53 0.527,0.363 0.944,0.888 1.396,1.354 0.179,0.184 0.27,0.509 0.477,0.605 1.916,0.888 3.132,2.706 4.959,3.705 0.218,1.559 0.218,1.559 -1.025,3.365 -0.404,-0.248 -0.858,-0.454 -1.224,-0.765 -2.443,-2.065 -4.81,-4.223 -7.308,-6.217 -4.335,-3.459 -8.746,-6.823 -13.129,-10.222 -0.193,-0.149 -0.419,-0.257 -0.925,-0.563 0.17,0.555 0.169,0.905 0.344,1.067 1.864,1.731 3.734,3.46 5.652,5.132 1.082,0.944 2.266,1.77 3.389,2.668 0.758,0.606 1.49,1.244 2.235,1.867 0.198,0.166 0.376,0.399 0.605,0.481 2.003,0.721 3.181,2.4 4.585,3.833 0.57,0.583 1.316,1.011 2.021,1.445 1.354,0.835 2.736,1.624 4.199,2.487 v 0.746 c 0.763,0.374 1.492,0.731 2.293,1.123 m 3.12,-24.607 c 0.47,-1.356 1.042,-2.677 1.513,-4.032 0.297,-0.858 0.533,-1.742 0.725,-2.63 0.138,-0.641 0.387,-1.088 1.086,-1.198 0.895,-0.141 1.539,0.148 1.993,0.904 0.396,0.658 0.251,1.197 -0.212,1.784 -1.888,2.391 -3.057,5.146 -3.807,8.066 -0.534,2.077 -0.882,4.202 -1.337,6.425 2.5,1.649 5.028,1.185 7.515,0.737 2.572,-0.463 4.774,-1.687 6.629,-3.547 0.502,-0.502 1.174,-0.834 1.679,-1.335 1.916,-1.902 2.844,-4.277 3.475,-6.875 0.485,-1.999 0.463,-4.02 0.337,-5.965 -0.192,-2.937 -1.006,-5.835 -3.333,-7.945 -1.836,-1.665 -3.751,-3.245 -5.665,-4.821 -0.877,-0.723 -1.914,-1.119 -3.077,-1.135 -0.257,-0.003 -0.519,-0.063 -0.767,-0.135 -4.097,-1.197 -7.624,0.274 -10.829,2.57 -3.204,2.295 -5.407,5.464 -6.79,9.16 -0.783,2.09 -0.735,4.215 0.01,6.32 0.043,0.123 0.134,0.234 0.155,0.359 0.539,3.254 2.283,5.935 4.138,8.542 0.599,0.842 1.396,1.565 2.194,2.232 0.401,0.336 1.007,0.426 1.621,0.666 0.96,-2.856 1.833,-5.509 2.747,-8.147 M 44.326,-2.896 c 1.635,0.387 3.351,0.443 5.036,0.594 0.284,0.025 0.588,-0.188 0.876,-0.288 -0.193,-1.187 -1.197,-1.568 -1.946,-1.864 -2.462,-0.974 -4.562,-2.801 -7.605,-3.295 0.094,1.294 0.164,2.244 0.236,3.242 1.203,0.59 2.247,1.337 3.403,1.611 m 5.696,33.625 c -1.952,1.298 -3.908,2.59 -5.838,3.919 -1.447,0.996 -2.855,2.044 -4.411,3.164 0.275,0.807 0.513,1.751 0.914,2.62 0.406,0.881 0.971,1.689 1.503,2.59 0.266,-0.062 0.548,-0.056 0.742,-0.184 1.46,-0.965 3.07,-1.272 4.797,-1.481 2.185,-0.265 4.323,-0.922 6.48,-1.408 0.88,-0.199 1.762,-0.391 2.707,-0.601 0.029,-0.641 0.007,-1.158 0.087,-1.659 0.08,-0.496 0.262,-0.976 0.414,-1.52 h 1.611 c 0.164,-0.389 0.314,-0.744 0.554,-1.314 1.087,-0.12 2.273,-0.25 3.571,-0.393 0.038,-0.568 -0.141,-1.129 -0.475,-1.821 -0.692,-1.435 -1.839,-2.212 -3.063,-3.067 -1.433,-1.002 -2.71,-2.231 -4.051,-3.366 -1.53,-1.295 -3.055,-2.595 -4.881,-4.147 -0.098,2.415 0.792,4.255 1.377,6.181 -0.244,1.174 -1.096,1.862 -2.038,2.487 M 40.036,16.025 c 0.142,2.838 -0.743,5.542 -1.005,8.324 -0.078,0.821 -0.131,1.645 -0.214,2.695 1.936,-0.779 3.604,-1.451 5.376,-2.165 0,-0.335 0.087,-0.679 -0.013,-0.956 -0.907,-2.505 -1.858,-4.993 -2.763,-7.498 -0.122,-0.338 -0.185,-0.784 -0.068,-1.105 0.326,-0.902 -0.235,-1.119 -1.067,-1.527 -0.1,0.855 -0.279,1.549 -0.246,2.232 m -6.947,-4.207 c -0.562,1.095 -1.131,2.197 -1.824,3.209 -0.504,0.738 -1.212,1.337 -1.921,2.098 0.528,0.87 1.322,1.473 2.084,2.033 0.903,-2.71 1.814,-5.323 2.64,-7.962 C 34.632,9.397 35.088,7.564 35.564,5.74 35.642,5.447 35.575,5.116 35.575,4.803 35.426,4.74 35.276,4.677 35.127,4.614 34.929,4.885 34.608,5.133 34.554,5.43 c -0.27,1.466 -0.423,2.954 -0.712,4.415 -0.136,0.682 -0.433,1.349 -0.753,1.973 M 34.254,1.903 C 31.966,1.87 29.676,1.945 27.389,1.876 24.586,1.791 21.786,1.595 18.985,1.461 18.223,1.425 17.434,1.349 16.552,2.044 c 0.45,0.368 0.727,0.769 1.077,0.846 0.949,0.207 1.928,0.362 2.898,0.386 3.333,0.085 6.669,0.099 10.003,0.152 1.306,0.022 2.611,0.111 3.914,0.102 0.504,-0.004 1.039,-0.122 1.494,-0.332 0.222,-0.102 0.291,-0.534 0.526,-1.015 -0.831,-0.11 -1.519,-0.27 -2.21,-0.28 m -5.898,-8.118 c -1.028,-1.543 -1.234,-1.65 -3.134,-2.652 -2.077,2.961 -4.16,5.93 -6.541,9.325 h 12.856 c -0.48,-2.541 -1.814,-4.623 -3.181,-6.673 M 6.896,-9.706 c 1.407,1.804 2.688,3.435 3.958,5.075 1.258,1.627 2.265,3.457 3.872,5.05 2.95,-3.697 5.428,-7.42 7.463,-11.703 -5.359,-1.679 -10.286,-0.813 -15.293,1.578 m -8.381,-6.035 c 0.731,-0.152 1.566,-0.163 2.254,-0.164 6.034,-0.007 12.068,0.021 18.102,-0.019 1.828,-0.012 3.654,-0.234 5.483,-0.307 1.506,-0.061 3.016,-0.077 4.523,-0.038 0.409,0.011 0.812,0.29 1.31,0.481 -0.713,1.753 -1.493,3.299 -2.903,4.538 3.335,3.436 5.95,7.206 7.411,11.802 0.532,-0.04 1.05,-0.051 1.557,-0.132 0.246,-0.039 0.471,-0.211 0.823,-0.38 0.247,-1.929 1.131,-3.637 2.417,-4.98 -0.179,-0.601 -0.412,-1.039 -0.412,-1.476 0,-0.645 0.08,-1.32 0.295,-1.922 0.133,-0.374 0.576,-0.9 0.884,-0.902 0.956,-0.006 1.534,-0.58 2.182,-1.229 2.06,0.458 3.648,1.705 5.3,2.758 0.062,0.621 0.113,1.126 0.167,1.676 0.399,0.17 0.752,0.321 1.105,0.473 1.155,0.497 1.804,1.466 2.283,2.552 0.417,0.946 0.096,1.572 -0.923,1.667 -0.903,0.085 -1.828,-0.012 -2.739,-0.078 -0.705,-0.051 -1.405,-0.179 -2.136,-0.276 -0.605,1.986 -1.172,3.843 -1.714,5.62 6.249,7.525 13.258,14.072 21.338,19.593 0.231,-1.554 0.446,-3.013 0.667,-4.501 -2.757,-1.188 -4.674,-3.093 -6.146,-5.492 -0.582,-0.948 -1.192,-1.883 -1.848,-2.782 -1.832,-2.508 -2.728,-5.324 -2.778,-8.404 -0.018,-1.104 0.006,-2.244 0.251,-3.313 1.071,-4.698 3.665,-8.401 7.309,-11.548 3.475,-3.001 7.468,-4.053 11.899,-4.207 1.999,-0.069 3.622,0.983 5.441,1.431 0.73,0.179 1.482,0.577 2.044,1.078 1.753,1.563 3.486,3.159 5.097,4.868 1.021,1.084 2.012,2.292 2.649,3.622 0.722,1.509 1.115,3.196 1.502,4.841 0.511,2.174 0.772,4.379 0.058,6.583 -0.301,0.929 -0.573,1.868 -0.829,2.81 -1.248,4.586 -4.459,7.626 -8.241,10.081 -2.474,1.606 -5.505,1.922 -8.29,2.8 -0.451,0.142 -1.027,-0.05 -1.532,-0.154 -1.195,-0.246 -2.382,-0.533 -3.559,-0.8 -1.05,3.638 -1.053,3.995 -0.159,5.381 -0.257,1.817 -0.449,3.557 -0.762,5.275 -0.256,1.405 -0.52,2.875 -2.43,3.226 0.091,1.272 0.157,2.425 0.259,3.576 0.132,1.511 -0.333,2.572 -1.773,3.369 -3.145,1.742 -6.657,2.324 -9.99,3.466 -2.092,0.716 -4.11,1.658 -6.123,2.584 -0.637,0.293 -1.19,0.833 -1.249,1.648 -0.107,1.46 -0.786,2.739 -1.5,3.932 -1.237,2.066 -2.216,4.321 -4.016,6.021 -0.114,0.108 -0.092,0.359 -0.133,0.542 2.61,0.581 4.173,2.091 4.429,4.685 0.673,0.597 1.282,1.138 1.962,1.741 -1.235,1.822 -1.393,3.546 -0.248,5.153 -0.393,2.198 -0.393,2.198 -2.331,4.998 -0.728,0.372 -1.426,0.611 -1.983,1.034 -2,1.519 -5.495,1.575 -7.529,0.183 -2.127,-1.456 -3.352,-3.49 -3.869,-5.919 -0.442,-2.086 -0.398,-4.184 1.311,-5.831 0.839,-0.808 1.726,-1.568 2.739,-2.482 -0.242,-0.414 -0.411,-0.922 -0.753,-1.251 -2.387,-2.301 -3.638,-5.236 -4.637,-8.293 -0.913,-2.794 -1.776,-5.608 -2.535,-8.446 -0.739,-2.769 -1.354,-5.573 -1.935,-8.38 -0.104,-0.498 0.043,-1.304 0.388,-1.595 1.296,-1.09 1.696,-2.606 2.228,-4.069 0.799,-2.199 1.57,-4.408 2.338,-6.572 -1.404,-1.686 -2.685,-3.226 -3.929,-4.72 -0.436,0.169 -0.688,0.248 -0.922,0.363 -0.411,0.203 -0.804,0.444 -1.218,0.64 -3.87,1.833 -7.775,3.498 -12.224,2.501 C 12.095,23.161 11.96,23.171 11.829,23.166 9.631,23.087 7.595,22.356 5.61,21.511 4.657,21.105 3.59,20.634 2.96,19.874 1.518,18.136 -0.139,16.577 -1.262,14.55 -2.787,11.798 -3.117,8.718 -3.996,5.791 -4.219,5.049 -4.47,4.223 -4.356,3.49 c 0.5,-3.218 0.979,-6.473 3.019,-9.182 0.816,-1.083 3.65,-3.555 3.477,-4.858 -0.171,-1.286 -3.096,-3.144 -4.115,-3.726 -0.241,-0.139 -0.51,-0.298 -0.576,-0.568 -0.073,-0.307 0.174,-0.618 0.47,-0.729 0.186,-0.069 0.387,-0.124 0.596,-0.168"
         style="fill:#000000;fill-opacity:1;fill-rule:nonzero;stroke:none"
         id="path1872"
         inkscape:connector-curvature="0" />
    </g>
  </g>
</svg>
