<?xml version="1.0" encoding="UTF-8" standalone="no"?>
<!-- Created with Inkscape (http://www.inkscape.org/) -->

<svg
   xmlns:dc="http://purl.org/dc/elements/1.1/"
   xmlns:cc="http://creativecommons.org/ns#"
   xmlns:rdf="http://www.w3.org/1999/02/22-rdf-syntax-ns#"
   xmlns:svg="http://www.w3.org/2000/svg"
   xmlns="http://www.w3.org/2000/svg"
   xmlns:sodipodi="http://sodipodi.sourceforge.net/DTD/sodipodi-0.dtd"
   xmlns:inkscape="http://www.inkscape.org/namespaces/inkscape"
   width="37mm"
   height="26mm"
   viewBox="0 0 37 26"
   version="1.1"
   id="svg1135"
   inkscape:version="0.92.5 (2060ec1f9f, 2020-04-08)"
   sodipodi:docname="velo3.svg">
  <defs
     id="defs1129" />
  <sodipodi:namedview
     id="base"
     pagecolor="#ffffff"
     bordercolor="#666666"
     borderopacity="1.0"
     inkscape:pageopacity="0.0"
     inkscape:pageshadow="2"
     inkscape:zoom="2.8"
     inkscape:cx="137.24244"
     inkscape:cy="72.794757"
     inkscape:document-units="mm"
     inkscape:current-layer="layer1"
     showgrid="false"
     inkscape:window-width="960"
     inkscape:window-height="983"
     inkscape:window-x="960"
     inkscape:window-y="27"
     inkscape:window-maximized="0" />
  <metadata
     id="metadata1132">
    <rdf:RDF>
      <cc:Work
         rdf:about="">
        <dc:format>image/svg+xml</dc:format>
        <dc:type
           rdf:resource="http://purl.org/dc/dcmitype/StillImage" />
        <dc:title></dc:title>
      </cc:Work>
    </rdf:RDF>
  </metadata>
  <g
     inkscape:label="Calque 1"
     inkscape:groupmode="layer"
     id="layer1"
     transform="translate(0,-271)">
    <g
       id="g1886"
       transform="matrix(0.26129746,0,0,-0.26129746,6.5571997,292.42004)"
       style="fill:#000000">
      <path
         d="m 0,0 c -1.088,3.701 -0.439,7.219 0.755,10.683 0.393,1.138 1.285,2.134 2.062,3.104 1.021,1.271 2.154,2.451 3.418,3.873 C 8.787,13.455 11.218,9.449 13.709,5.343 10.157,1.591 6.808,-1.948 3.379,-5.57 1.642,-3.961 0.636,-2.166 0,0 m -2.522,11.224 c -0.283,0 -0.549,-0.046 -0.791,0.013 -0.239,0.06 -0.452,0.227 -0.626,0.321 -0.04,0.213 -0.123,0.368 -0.079,0.457 0.505,0.987 0.863,2.116 1.583,2.915 1.89,2.097 3.936,4.054 5.933,6.054 0.225,0.224 0.535,0.363 0.811,0.545 C 4.797,20.808 4.346,20.393 3.952,19.941 2.874,18.7 1.745,17.496 0.761,16.183 -0.104,15.03 -0.793,13.746 -1.575,12.53 -1.858,12.09 -2.189,11.68 -2.522,11.224 m 6.095,15.437 c 1.156,0 1.983,-0.011 2.81,0.002 3.896,0.058 7.793,0.098 11.688,0.192 2.959,0.071 5.916,0.229 8.874,0.314 0.789,0.022 1.583,-0.068 2.373,-0.129 0.888,-0.068 1.664,-0.37 2.341,-1.291 -0.996,-1.163 -2.005,-2.342 -3.07,-3.586 -1.568,0.727 -3.084,1.48 -4.643,2.133 -0.71,0.298 -1.497,0.428 -2.259,0.586 -3.515,0.734 -7.071,0.192 -10.606,0.244 -1.21,0.018 -2.432,-0.499 -3.642,-0.795 -0.632,-0.156 -1.253,-0.364 -2.02,-0.59 -0.616,0.974 -1.131,1.79 -1.846,2.92 m 30.084,-1.295 c 0.938,-1.446 2.871,-10.39 2.915,-13.213 -1.42,1.958 -2.789,3.867 -4.184,5.757 -0.509,0.689 -1.097,1.318 -1.616,2 -0.485,0.638 -0.596,1.363 -0.072,2.01 0.941,1.162 1.945,2.273 2.957,3.446 m -0.72,7.099 c -0.711,0.692 -1.41,1.407 -2.181,2.027 -1.176,0.946 -1.464,2.132 -1.187,3.545 0.343,1.747 0.64,3.504 0.996,5.248 0.437,2.132 0.879,4.265 1.389,6.382 0.275,1.145 0.696,2.255 1.055,3.38 0.355,1.121 0.715,2.241 1.122,3.517 h 1.75 c 0.251,-0.377 0.624,-0.721 0.733,-1.135 1.007,-3.805 2.598,-7.339 4.778,-10.613 0.145,-0.219 0.248,-0.467 0.484,-0.921 -0.778,-1.207 -1.618,-2.512 -2.514,-3.903 0.368,-0.281 0.649,-0.674 0.971,-0.712 2.154,-0.255 3.471,-1.775 4.85,-3.164 1.161,-1.172 2.244,-2.427 3.303,-3.692 0.503,-0.6 0.871,-1.312 1.41,-2.14 -3.185,-3.323 -7.064,-5.364 -11.338,-6.968 -0.162,0.296 -0.393,0.614 -0.52,0.969 -0.877,2.453 -2.463,4.51 -3.757,6.729 -0.324,0.557 -0.872,0.99 -1.344,1.451 m -2.208,25.607 c -1.002,-0.393 -1.263,-0.155 -1.62,1.331 0.564,0.308 1.013,0.554 1.549,0.847 -0.205,0.599 -0.389,1.139 -0.581,1.696 0.212,0.235 0.349,0.502 0.565,0.609 2.119,1.051 2.793,3.017 3.281,5.107 0.058,0.25 0.007,0.589 0.155,0.743 1.318,1.362 1.212,3.131 1.495,4.809 0.173,1.022 0.538,2.024 0.921,2.994 0.156,0.397 0.521,0.847 0.902,1.002 2.209,0.902 4.462,1.26 6.65,-0.056 1.201,-0.722 1.208,-1.592 0.099,-2.509 -0.997,-0.825 -1.958,-1.612 -3.228,-2.13 -1.404,-0.573 -1.93,-2.174 -2.089,-3.6 -0.151,-1.365 -0.376,-2.6 -1.302,-3.645 -0.127,-0.144 -0.292,-0.347 -0.278,-0.509 0.136,-1.559 -0.918,-2.727 -1.329,-4.105 -0.486,-1.63 -0.884,-1.943 -2.536,-1.929 -0.972,0.008 -1.789,-0.316 -2.654,-0.655 m 16.043,11.72 c -0.399,-0.791 -0.81,-1.476 -1.105,-2.207 -1.463,-3.635 -3.147,-4.258 -6.795,-2.36 0.853,0.972 1.121,2.114 1.238,3.385 0.081,0.875 0.266,1.928 1.477,2.31 0.576,0.182 1.02,0.784 1.523,1.196 l 0.009,0.008 c 0.454,0.555 0.907,1.109 1.453,1.778 1.294,-1.378 0.501,-3.491 2.2,-4.11 M 44.424,50.706 c 0.293,-0.509 0.469,-1.086 0.738,-1.726 0.643,-0.205 1.314,-0.473 2.009,-0.633 3.201,-0.74 6.227,-2.09 9.52,-2.551 1.914,-0.267 3.648,-1.204 4.937,-2.729 0.441,-0.522 0.712,-1.187 1.027,-1.731 -1.098,-1.147 -2.03,-2.12 -3.001,-3.134 -0.063,0.116 -0.232,0.276 -0.214,0.409 0.293,2.069 -0.994,3.264 -2.339,4.356 -2.279,0.319 -4.497,0.616 -6.709,0.943 -1.826,0.269 -3.643,0.59 -5.469,0.858 -1.258,0.183 -2.19,0.846 -2.944,1.829 -1.544,2.013 -2.654,4.26 -3.497,6.635 -0.566,1.6 -0.944,3.258 -1.95,4.691 -0.237,0.337 -0.13,1.029 0.018,1.495 0.215,0.681 0.608,1.306 0.961,2.027 2.296,0.346 3.447,-0.331 3.871,-2.188 0.679,-2.97 1.509,-5.882 3.042,-8.551 M 64.49,41.025 c 0.753,-0.238 0.702,-0.961 0.745,-1.465 0.095,-1.112 0.01,-2.238 -0.012,-3.358 -0.002,-0.126 -0.133,-0.263 -0.11,-0.376 0.494,-2.448 -1.239,-3.709 -2.724,-5.076 -2.967,-2.729 -5.966,-5.423 -8.941,-8.143 -0.711,-0.649 -1.381,-1.343 -2.397,-2.338 0.22,1.648 0.281,2.827 0.553,3.954 0.41,1.698 0.166,3.142 -1.307,4.292 0.255,0.519 0.481,0.978 0.777,1.58 -0.393,0.738 -0.67,1.692 -1.279,2.328 -2.636,2.752 -4.671,6.112 -8.213,8.088 0.434,1.139 0.846,2.224 1.329,3.496 0.841,-0.174 1.715,-0.372 2.595,-0.531 3.114,-0.565 6.229,-1.125 9.348,-1.665 0.693,-0.121 1.328,-0.238 1.339,-1.178 -0.475,-1.016 -1.683,-1.668 -1.721,-3.028 1.083,-1.122 2.32,-0.496 3.623,-0.318 0.278,-0.342 0.594,-0.73 1.043,-1.281 1.047,0.81 2.108,1.518 3.029,2.377 0.848,0.79 1.543,1.742 2.323,2.642 m 0.648,-12.891 c -1.309,-1.481 -2.606,-2.974 -3.965,-4.407 -2.725,-2.873 -5.448,-5.75 -8.253,-8.545 -1.35,-1.345 -2.881,-2.508 -4.608,-3.992 0.527,1.781 0.888,3.272 1.429,4.694 0.217,0.57 0.75,1.114 1.278,1.457 4.657,3.037 8.195,7.263 12.015,11.192 0.678,0.696 1.431,1.32 2.264,2.082 0.65,-1.129 0.402,-1.844 -0.16,-2.481 m 2.027,-2.253 c 0.987,-0.654 1.143,-1.402 0.969,-2.222 -1.313,-0.322 -2.577,-0.633 -4.079,-1.002 1.121,1.162 2.096,2.174 3.11,3.224 m 1.597,-3.512 C 68.011,21.463 67.217,20.948 66.432,20.678 63.854,19.793 62.172,17.93 60.659,15.824 60.122,15.076 59.557,14.348 59.039,13.587 58.193,12.342 57.302,11.119 56.566,9.809 55.582,8.057 55.215,6.103 55.044,4.116 54.985,3.44 54.77,2.967 53.697,3.171 c -0.16,1.444 -0.098,2.733 0.263,4.127 1.294,4.991 4.576,8.509 8.267,11.775 0.148,0.132 0.325,0.238 0.453,0.386 1.528,1.779 3.584,2.462 6.082,2.91 m 0.987,-3.65 c 0.598,-1.778 1.225,-3.567 1.8,-5.372 0.839,-2.636 1.616,-5.291 2.469,-7.923 0.365,-1.127 0.738,-2.298 1.767,-3.035 0.517,-0.369 1.114,-0.469 1.595,0.111 0.452,0.545 0.358,1.101 -0.051,1.629 -0.079,0.103 -0.173,0.225 -0.286,0.267 -0.955,0.354 -1.088,1.225 -1.375,2.043 -1.222,3.49 -2.505,6.957 -3.725,10.448 -0.297,0.854 -0.441,1.763 -0.647,2.613 0.301,0.218 0.447,0.414 0.609,0.427 1.966,0.172 3.938,0.461 5.904,0.436 3.952,-0.05 7.421,-1.547 9.963,-4.537 1.42,-1.669 2.627,-3.655 3.027,-5.951 0.269,-1.554 0.597,-3.097 0.871,-4.649 0.362,-2.047 -0.29,-3.962 -1.024,-5.785 -1.59,-3.953 -4.061,-7.274 -7.785,-9.482 -1.643,-0.973 -3.412,-1.796 -5.373,-1.87 -1.239,-0.046 -2.489,0.098 -3.731,0.2 -2.376,0.194 -4.665,0.731 -6.797,1.836 -0.292,0.15 -0.633,0.252 -0.864,0.469 -2.908,2.726 -5.945,5.454 -6.786,9.545 -0.766,3.724 -0.744,7.517 1.195,10.99 0.471,0.842 1.245,1.53 1.942,2.225 1.637,1.633 3.314,3.224 4.968,4.839 0.568,0.556 1.23,0.747 2.334,0.526 m 4.207,5.34 c 1.652,10e-4 3.369,0.119 4.943,-0.273 2.532,-0.632 5.216,-0.767 7.562,-2.081 1.363,-0.765 2.695,-1.568 3.816,-3.193 -0.657,0.071 -1.041,0.013 -1.305,0.164 -0.453,0.258 -0.826,0.657 -1.244,0.979 -2.177,1.67 -4.514,2.972 -7.315,3.253 -0.452,0.046 -0.887,0.248 -1.333,0.363 -2.234,0.575 -4.454,0.374 -6.657,-0.171 -0.574,-0.143 -1.116,-0.337 -1.88,0.199 1.176,0.759 2.316,0.758 3.413,0.76 M 45.181,5.54 c -0.729,0.164 -1.274,0.286 -2.003,0.45 0.182,1.926 0.356,3.749 0.528,5.573 0.217,2.294 0.389,4.595 0.664,6.883 0.149,1.239 0.443,2.464 0.728,3.682 0.2,0.86 0.304,1.678 -0.375,2.404 1.219,1.344 2.432,2.537 4.023,3.308 1.123,-0.514 1.704,-1.302 1.544,-2.514 C 50.074,23.693 49.927,22.042 49.558,20.442 48.949,17.806 48.235,15.191 47.473,12.594 46.788,10.266 45.978,7.976 45.181,5.54 m 5.508,-7.58 c 0.015,-0.159 0.03,-0.318 0.044,-0.477 -0.467,-0.189 -0.925,-0.513 -1.403,-0.545 -2.933,-0.199 -5.869,-0.333 -9.056,-0.502 0.313,0.798 0.518,1.323 0.74,1.889 3.322,0.334 6.557,1.205 9.675,-0.365 m -8.495,12.515 c -0.067,-1.238 -0.247,-2.47 -0.406,-3.978 -1.176,3.197 -1.454,6.295 -2.097,9.681 1.106,-0.721 1.908,-1.245 2.61,-1.703 0.649,-1.445 -0.035,-2.711 -0.107,-4 m -3.723,11.013 c 1.723,0.918 3.214,1.711 4.926,2.623 0.227,-0.644 0.533,-1.061 0.469,-1.41 -0.281,-1.537 -0.669,-3.054 -1.048,-4.705 -2.185,0.103 -2.765,2.188 -4.347,3.492 M 40.02,3.824 c -0.602,2.289 -1.199,4.579 -1.73,6.884 -0.31,1.341 -0.476,2.714 -0.742,4.066 -0.319,1.613 -0.686,3.216 -1.01,4.828 -0.111,0.556 -0.155,1.127 -0.243,1.794 0.996,-0.257 1.101,-0.943 1.238,-1.574 0.638,-2.959 1.259,-5.922 1.883,-8.884 C 39.753,9.337 40.115,7.74 40.405,6.13 40.59,5.109 40.661,4.067 40.557,2.937 40.373,3.231 40.104,3.503 40.02,3.824 M 37.365,3.297 c -0.303,2.087 -0.602,4.088 -0.87,6.094 -0.018,0.14 0.199,0.311 0.494,0.74 0.601,-2.351 1.14,-4.462 1.72,-6.734 -0.528,-0.039 -0.83,-0.062 -1.344,-0.1 m -2.261,6.06 c -1.549,2.618 -3.061,5.202 -4.612,7.762 -0.219,0.36 -0.614,0.621 -0.956,0.893 -0.348,0.276 -0.73,0.508 -1.313,0.906 0.415,0.353 0.603,0.514 0.857,0.729 1.456,-0.928 2.185,-2.435 3.17,-3.695 0.884,-1.131 1.602,-2.39 2.392,-3.594 0.61,-0.929 0.693,-1.93 0.462,-3.001 M 31.823,3.315 c -2.155,0.13 -4.368,0.317 -6.585,0.383 -2.237,0.067 -4.478,0.015 -6.964,0.015 -0.348,0.376 -0.792,0.854 -1.35,1.455 1.284,2.215 2.909,4.093 4.553,5.945 1.649,1.86 2.992,4.009 5.006,5.508 3.355,-1.839 6.526,-9.576 5.34,-13.306 M 27.065,-7.929 c -1.947,1.548 -6.163,7.145 -6.921,9.192 1.359,0.43 10.194,0.461 11.872,0.041 -0.945,-4.559 -2.484,-7.87 -4.951,-9.233 M 7.264,21.913 c -0.426,-0.259 -0.948,-0.488 -1.532,0.212 0.428,0.297 0.79,0.73 1.226,0.823 2.549,0.549 5.016,1.523 7.749,1.036 1.388,-0.247 2.872,0.114 4.307,0.054 2.93,-0.121 5.862,-1.243 8.56,-3.2 -0.345,-0.197 -0.696,-0.547 -0.869,-0.474 -2.112,0.889 -4.197,1.843 -6.291,2.776 -0.339,0.151 -0.683,0.391 -1.031,0.404 -1.582,0.061 -3.169,0.125 -4.748,0.06 -2.552,-0.107 -5.096,-0.312 -7.371,-1.691 m 6,-0.646 c 3.827,0.682 7.302,-0.285 10.73,-1.744 0.465,-0.198 0.841,-0.604 1.236,-0.898 C 24.539,16.86 16.757,7.998 14.593,6.515 c -2.284,3.982 -5.266,7.541 -6.954,11.942 1.679,1.464 3.432,2.419 5.625,2.81 m 9.378,-32.413 c -2.941,-0.703 -5.868,-1.621 -8.942,-0.694 -0.368,0.111 -0.785,0.095 -1.179,0.088 -2.658,-0.044 -4.564,1.417 -6.521,3.085 1.982,4.277 5.58,6.579 8.759,9.201 2.483,-2.782 4.905,-5.454 7.273,-8.173 0.722,-0.827 1.479,-1.684 1.65,-2.965 -0.365,-0.195 -0.681,-0.457 -1.04,-0.542 M 2.027,-12.774 c 0.372,0.47 0.725,0.917 1.16,1.466 1.197,-0.722 2.293,-1.384 3.5,-2.111 -1.676,-0.498 -2.639,-0.357 -4.66,0.645 m -6.304,-2.034 c -0.127,-0.403 -0.119,-0.808 0.127,-1.179 0.37,-0.562 0.936,-0.652 1.584,-0.503 0.477,0.11 1.001,0.269 1.462,0.204 2.01,-0.282 4.003,-0.704 6.032,-0.642 3.215,0.099 6.435,-0.148 9.654,-0.172 4.104,-0.031 8.208,-0.022 12.312,0.038 1.961,0.028 3.934,0.12 5.811,0.687 0.301,0.831 -0.069,1.397 -0.477,1.915 -0.615,0.777 -1.307,1.493 -1.915,2.275 -0.465,0.601 -0.852,1.263 -1.203,1.792 1.484,2.018 2.796,3.845 4.156,5.636 0.652,0.859 1.13,1.744 1.277,2.845 0.144,1.076 0.475,2.127 0.698,3.082 1.403,0.155 2.58,0.286 3.879,0.43 0.386,-0.414 0.821,-0.882 1.256,-1.349 -0.329,-0.967 -0.656,-1.825 -0.909,-2.704 -0.247,-0.86 -0.702,-1.776 0.327,-2.55 0.612,-0.048 1.262,-0.099 1.834,-0.143 v -2.223 c 0.511,-0.072 0.903,-0.215 1.269,-0.164 1.635,0.227 3.267,0.484 4.891,0.78 1.666,0.303 1.858,0.566 1.934,2.274 0.85,1.135 2.834,0.547 3.299,2.198 -1.64,2.357 -4.423,1.838 -6.579,2.741 -0.089,0.537 -0.092,1.019 -0.255,1.44 -0.534,1.376 -0.06,2.388 0.938,3.364 1.086,1.061 2.043,2.253 3.067,3.379 1.489,1.635 2.892,3.367 5.002,4.451 C 53.511,10.625 52.963,7.829 52.315,5.088 52.146,4.369 52.41,3.519 52.586,2.755 52.757,2.013 53.278,1.67 54.081,1.839 c 0.3,0.062 0.617,0.039 1.015,0.059 0.145,-0.524 0.331,-0.949 0.375,-1.388 0.358,-3.561 2.439,-6.214 4.632,-8.8 0.723,-0.853 1.429,-1.784 2.332,-2.407 1.889,-1.307 3.785,-2.667 6.141,-3.08 0.913,-0.161 1.86,-0.261 2.719,-0.581 3.331,-1.243 6.554,-0.458 9.691,0.589 5.362,1.788 8.884,5.753 11.772,10.407 1.274,2.053 1.499,4.374 1.68,6.658 0.17,2.16 0.179,4.339 -0.613,6.472 -0.966,2.6 -1.702,5.286 -3.364,7.491 1.19,1.647 1.241,1.984 -0.01,3.132 -1.065,0.977 -2.162,2.124 -3.463,2.597 -2.58,0.939 -5.304,1.492 -7.984,2.144 -0.8,0.195 -1.621,0.305 -2.445,0.283 -2.051,-0.057 -4.097,-0.221 -6.272,-0.35 -0.23,0.535 -0.585,1.109 -0.728,1.732 -0.472,2.055 -0.804,4.143 -1.315,6.188 -0.376,1.502 -0.259,3.215 -1.427,4.078 -0.251,2.5 -0.47,4.695 -0.711,7.089 -0.67,0.045 -1.374,0.185 -2.055,0.122 -0.852,-0.078 -1.733,0.09 -2.364,0.666 -0.5,0.455 -1.107,0.797 -1.69,1.153 -1.078,0.658 -2.197,1.103 -3.515,1.155 -2.877,0.114 -5.487,1.406 -8.25,2.021 -1.548,0.344 -2.419,1.218 -3.007,2.557 -0.134,0.303 -0.291,0.597 -0.405,0.908 -1.058,2.922 -2.114,5.846 -3.158,8.773 -0.208,0.581 -0.283,1.168 0.238,1.634 0.078,0.041 0.133,0.095 0.192,0.098 0.327,0.021 0.654,0.029 0.981,0.041 1.817,0.07 2.502,0.619 2.924,2.341 0.188,0.762 0.377,1.523 0.556,2.244 0.633,0.295 1.21,0.564 1.898,0.885 -0.305,0.59 -0.437,1.162 -0.795,1.481 -1.385,1.235 -1.539,2.932 -1.425,4.504 0.129,1.788 -0.785,2.879 -2.016,3.557 -2.255,1.241 -4.7,1.256 -7.052,0.082 -1.08,-0.54 -1.889,-1.542 -2.21,-2.705 -0.275,-0.998 -0.435,-2.036 -0.566,-3.066 -0.16,-1.259 -0.373,-2.469 -1.116,-3.552 -0.275,-0.403 -0.382,-0.94 -0.496,-1.433 -0.374,-1.637 -0.907,-3.145 -2.584,-3.932 -1.212,-0.57 -1.513,-1.557 -1.021,-2.951 -0.434,-0.289 -0.873,-0.583 -1.179,-0.787 0,-0.622 -0.054,-1.024 0.01,-1.407 0.221,-1.341 0.691,-1.715 2.005,-1.581 0.453,0.047 0.889,0.242 1.34,0.327 0.366,0.068 0.743,0.074 1.185,0.113 0.093,-0.338 0.259,-0.604 0.208,-0.819 -0.255,-1.09 -0.412,-2.239 -0.887,-3.232 C 30.63,50.8 30.35,48.012 29.654,45.335 29.06,43.042 28.861,40.646 28.275,38.351 c -0.362,-1.42 -0.16,-2.61 0.579,-3.777 0.351,-0.554 0.77,-1.065 1.188,-1.637 -0.05,-0.153 -0.105,-0.334 -0.166,-0.512 -0.648,-1.869 -0.315,-2.524 1.536,-3.038 0.5,-0.139 0.993,-0.306 1.573,-0.486 -0.038,-0.427 -0.068,-0.777 -0.093,-1.062 -1.235,0.179 -2.334,0.451 -3.441,0.479 -5.425,0.14 -10.85,0.214 -16.276,0.312 -1.188,0.022 -2.377,0.091 -3.563,0.059 C 7.037,28.621 4.462,28.522 1.89,28.39 1.179,28.354 0.406,28.281 0.113,27.438 0.518,26.335 1.677,26.928 2.484,26.29 2.938,25.256 3.459,24.071 3.984,22.874 2.903,21.908 2,21.035 1.028,20.245 -1.253,18.392 -3.081,16.15 -4.701,13.724 -5.358,12.739 -5.742,11.707 -4.968,10.596 -4.407,10.279 -3.851,9.965 -3.273,9.639 -3.897,6.879 -4.162,4.204 -3.813,1.508 -3.37,-1.928 -1.794,-4.877 0.24,-7.62 c 0.299,-0.402 0.495,-0.881 0.777,-1.392 -1.128,-1.185 -2.306,-2.289 -3.477,-3.435 -0.526,-0.515 -1.527,-1.437 -1.817,-2.361"
         style="fill:#000000;fill-opacity:1;fill-rule:nonzero;stroke:none"
         id="path1888"
         inkscape:connector-curvature="0" />
    </g>
  </g>
</svg>
