<?xml version="1.0" encoding="UTF-8" standalone="no"?>
<!-- Created with Inkscape (http://www.inkscape.org/) -->

<svg
   xmlns:dc="http://purl.org/dc/elements/1.1/"
   xmlns:cc="http://creativecommons.org/ns#"
   xmlns:rdf="http://www.w3.org/1999/02/22-rdf-syntax-ns#"
   xmlns:svg="http://www.w3.org/2000/svg"
   xmlns="http://www.w3.org/2000/svg"
   xmlns:sodipodi="http://sodipodi.sourceforge.net/DTD/sodipodi-0.dtd"
   xmlns:inkscape="http://www.inkscape.org/namespaces/inkscape"
   width="37mm"
   height="26mm"
   viewBox="0 0 37 26"
   version="1.1"
   id="svg1135"
   inkscape:version="0.92.5 (2060ec1f9f, 2020-04-08)"
   sodipodi:docname="velo4.svg">
  <defs
     id="defs1129" />
  <sodipodi:namedview
     id="base"
     pagecolor="#ffffff"
     bordercolor="#666666"
     borderopacity="1.0"
     inkscape:pageopacity="0.0"
     inkscape:pageshadow="2"
     inkscape:zoom="2.8"
     inkscape:cx="137.24244"
     inkscape:cy="72.794757"
     inkscape:document-units="mm"
     inkscape:current-layer="layer1"
     showgrid="false"
     inkscape:window-width="960"
     inkscape:window-height="983"
     inkscape:window-x="960"
     inkscape:window-y="27"
     inkscape:window-maximized="0" />
  <metadata
     id="metadata1132">
    <rdf:RDF>
      <cc:Work
         rdf:about="">
        <dc:format>image/svg+xml</dc:format>
        <dc:type
           rdf:resource="http://purl.org/dc/dcmitype/StillImage" />
        <dc:title></dc:title>
      </cc:Work>
    </rdf:RDF>
  </metadata>
  <g
     inkscape:label="Calque 1"
     inkscape:groupmode="layer"
     id="layer1"
     transform="translate(0,-271)">
    <g
       id="g1874"
       transform="matrix(0.24380986,0,0,-0.24380986,6.3735118,292.22193)"
       style="fill:#000000">
      <path
         d="m 0,0 c -0.037,0.378 -0.218,0.746 -0.354,1.11 -0.698,1.87 -0.906,3.818 -0.808,5.787 0.041,0.831 0.248,1.681 0.536,2.465 0.609,1.656 1.275,3.295 2.01,4.899 0.46,1.004 1.002,1.986 2.081,2.531 0.326,0.165 0.554,0.531 0.815,0.815 0.219,0.236 0.377,0.555 0.637,0.722 2.402,1.545 4.828,3.052 7.652,3.734 0.189,0.046 0.391,0.057 0.586,0.053 3.198,-0.054 6.413,0.207 9.579,-0.43 0.732,-0.147 1.414,-0.536 2.222,-0.854 C 24.729,20.293 24.655,19.884 24.423,19.611 22.778,17.673 21.07,15.789 19.445,13.835 18.408,12.59 17.453,11.274 16.51,9.955 15.53,8.585 14.774,7.041 13.297,6.08 13.094,5.948 12.954,5.704 12.813,5.493 11.434,3.431 10.161,1.29 8.658,-0.677 7.116,-2.695 5.35,-4.542 3.604,-6.553 2.882,-6.17 2.415,-5.641 2.064,-5.03 1.155,-3.448 0.185,-1.889 0,0 m -4.516,9.431 c -0.105,-0.186 -0.377,-0.277 -0.711,-0.51 -0.402,1.118 -0.271,2.049 0.045,2.975 0.829,2.422 2.123,4.62 3.502,6.744 0.543,0.836 1.54,1.395 2.376,2.018 0.938,0.699 1.897,1.378 2.899,1.979 2.924,1.757 6.04,2.929 9.452,3.45 3.301,0.505 6.463,-0.166 9.643,-0.703 1.589,-0.268 3.144,-0.842 4.621,-1.935 -0.237,-0.428 -0.463,-0.837 -0.73,-1.318 -0.429,0.199 -0.72,0.325 -1.004,0.467 -4.873,2.44 -9.838,2.841 -14.931,0.704 C 9.987,23.026 9.296,22.757 8.596,22.663 6.968,22.442 5.648,21.649 4.478,20.588 2.686,18.964 0.899,17.331 -0.801,15.613 -1.477,14.931 -1.961,14.042 -2.452,13.2 -3.174,11.963 -3.812,10.678 -4.516,9.431 M -7.26,12.04 c -0.372,1.64 -0.091,3.198 -0.097,4.744 1.055,0.741 2.103,1.131 3.341,0.966 -0.855,-2.884 -1.881,-4.735 -3.244,-5.71 m 39.622,10.19 c 0.607,0.872 1.229,1.766 1.877,2.698 h 1.526 c 0.113,-0.101 0.271,-0.171 0.293,-0.27 0.834,-3.782 1.559,-7.581 1.75,-11.47 -0.943,3.533 -3.382,6.1 -5.446,9.042 M 33.287,7.396 C 32.117,6.856 30.773,6.973 29.428,7.031 28.129,7.087 26.822,7.174 25.528,7.09 23.775,6.976 22.033,6.707 20.285,6.517 19.984,6.484 19.677,6.512 19.128,6.512 c 3.117,3.848 6.085,7.512 9.037,11.156 3.137,-1.728 3.96,-4.636 4.522,-7.705 0.151,-0.826 0.38,-1.637 0.6,-2.567 M 31,19.159 c -0.598,-0.29 -0.937,-0.454 -1.554,-0.753 0.343,1.349 1.181,1.871 1.849,2.559 1.025,-0.5 1.689,-1.275 2.209,-2.199 0.096,-0.171 0.181,-0.352 0.304,-0.501 2.025,-2.441 2.906,-5.355 3.513,-8.393 0.117,-0.58 0.441,-1.12 0.741,-1.853 -0.373,-0.105 -0.948,-0.267 -1.31,-0.369 -0.674,1.432 -1.273,2.633 -1.809,3.862 -0.468,1.075 -0.848,2.188 -1.301,3.27 -0.656,1.563 -1.529,2.993 -2.642,4.377 m 1.505,7.828 c 0.421,0.484 0.726,1.072 1.064,1.624 0.408,0.663 0.792,1.34 1.211,2.053 0.699,0.084 1.339,0.187 1.983,0.229 0.582,0.038 1.17,0.008 1.599,0.008 1.304,-0.947 2.048,-1.888 2.202,-3.464 0.195,-1.983 0.902,-3.913 1.309,-5.881 0.197,-0.954 0.24,-1.944 0.309,-2.921 0.126,-1.814 0.255,-3.617 0.881,-5.357 0.184,-0.509 0.094,-1.116 0.132,-1.714 -1.205,-0.37 -2.237,-0.687 -3.387,-1.04 -0.963,5.747 -1.907,11.377 -2.87,17.125 -1.532,0.04 -2.612,-0.878 -3.462,-1.843 -2.199,-2.493 -4.23,-5.133 -6.343,-7.701 C 26.22,16.995 25.257,15.927 24.339,14.822 23.13,13.369 21.883,11.941 20.765,10.42 19.95,9.312 19.215,8.176 18.048,7.378 17.702,7.143 17.519,6.669 17.135,6.126 18.25,5.522 19.104,5.3 20.152,5.477 c 3.091,0.521 6.207,0.622 9.351,0.542 2.929,-0.075 5.866,0.18 8.911,0.294 C 38.547,5.993 38.715,5.59 38.983,4.947 37.538,4.78 36.268,4.51 34.996,4.508 30.366,4.502 25.735,4.599 21.105,4.627 19.799,4.635 18.492,4.509 17.186,4.507 c -0.777,-0.002 -1.59,0.035 -2.104,1.015 0.536,0.743 1.181,1.474 1.643,2.306 1.604,2.891 3.771,5.32 6.028,7.7 1.12,1.181 2.108,2.498 3.071,3.816 2.006,2.745 4.461,5.09 6.681,7.643 m 2.271,12.512 c 3.6,0.313 6.517,2.033 9.616,3.422 0.25,-0.14 0.525,-0.295 0.736,-0.413 0.05,-0.239 0.136,-0.393 0.093,-0.487 -0.421,-0.916 -0.276,-1.766 0.198,-2.621 1.742,-3.141 3.525,-6.261 5.176,-9.45 0.956,-1.848 1.76,-3.784 2.488,-5.735 0.382,-1.023 0.39,-2.123 0.2,-3.276 -0.252,-1.537 -0.108,-3.135 -0.204,-4.703 -0.08,-1.296 -0.263,-2.585 -0.396,-3.878 -0.027,-0.251 -0.087,-0.51 -0.048,-0.753 C 53.167,8.302 52.464,5.114 51.747,1.928 51.663,1.553 51.47,1.202 51.375,0.96 50.305,0.502 49.367,0.082 48.413,-0.301 c -1.099,-0.44 -2.21,-0.864 -3.568,0.041 0.081,1.022 0.137,2.18 0.272,3.329 0.298,2.526 0.635,5.046 0.959,7.568 0.275,2.133 0.568,4.263 0.825,6.398 0.263,2.17 0.226,4.241 -1.047,6.219 -2.059,3.204 -4.515,6.067 -6.941,8.984 -1.744,2.097 -3.799,4.153 -4.137,7.261 m 4.689,38.796 c 0.338,1.461 1.321,2.784 2.093,4.125 0.285,0.496 0.755,0.899 1.189,1.291 1.096,0.991 2.409,1.313 3.83,1.009 0.818,-0.176 1.598,-0.527 2.367,-0.789 0.605,-1.95 0.38,-2.334 -1.498,-2.634 -1.509,-0.241 -1.506,-0.241 -1.769,-1.792 -0.162,-0.957 -0.341,-1.912 -0.529,-2.954 -0.64,0.066 -1.203,0.123 -1.757,0.18 -0.774,-0.652 -1.216,-1.394 -1.37,-2.354 -0.146,-0.919 -0.726,-1.48 -1.728,-1.62 -0.902,1.78 -1.252,3.705 -0.828,5.538 m 11.515,3.591 c 0.889,-0.708 0.75,-1.778 0.584,-2.677 -0.347,-1.877 0.009,-3.472 1.644,-5.001 -1.833,-0.052 -2.388,-1.009 -2.373,-2.413 0.011,-1.009 -0.578,-1.541 -1.444,-1.871 -0.428,-0.163 -0.953,-0.24 -1.253,-0.539 -1.155,-1.148 -2.347,-1.134 -3.906,-0.804 -1.803,0.38 -2.884,1.042 -2.989,3.109 0.495,0.416 1.22,0.816 1.63,1.427 0.415,0.621 0.521,1.449 0.77,2.213 0.227,0.034 0.406,0.094 0.581,0.084 1.489,-0.083 2.091,0.389 2.185,1.774 0.027,0.377 -0.116,0.771 -0.058,1.139 0.097,0.633 0.292,1.252 0.435,1.836 1.432,0.588 2.803,1.151 4.194,1.723 M 48.514,49.362 c 1.207,-0.833 2.617,-0.76 3.952,-0.991 2.758,-0.479 5.528,-0.906 8.263,-1.494 1.897,-0.408 2.795,-2.15 2.471,-4.398 -0.369,0.081 -0.736,0.163 -1.221,0.27 -0.209,-0.296 -0.434,-0.614 -0.786,-1.114 -0.29,0.905 -0.502,1.567 -0.781,2.442 -1.392,0.091 -2.88,0.13 -4.351,0.299 -2.715,0.313 -5.42,0.712 -8.132,1.058 -0.997,0.128 -1.7,0.613 -2.096,1.544 -0.66,1.557 -1.389,3.088 -1.959,4.677 -0.228,0.637 -0.113,1.398 -0.156,2.128 0.925,0.566 1.754,1.073 2.727,1.668 1.907,-1.627 1.166,-4.165 2.069,-6.089 m 16.021,-7.674 c 0.439,-0.139 0.781,-0.249 1.21,-0.385 0.1,0.594 0.185,1.095 0.267,1.58 1.221,0.041 1.875,-0.301 1.935,-1.314 0.103,-1.746 0.016,-3.504 -0.008,-5.256 -0.007,-0.639 -0.217,-1.32 -0.06,-1.908 0.337,-1.262 -0.195,-2.006 -1.193,-2.593 -0.451,-0.265 -0.912,-0.513 -1.353,-0.792 -2.008,-1.27 -3.723,-2.732 -4.895,-4.937 -1.341,-2.527 -3.098,-4.835 -4.704,-7.22 -0.388,-0.576 -0.887,-1.076 -1.657,-1.48 0,0.401 -0.151,0.891 0.024,1.189 1.766,2.995 4.191,8.333 4.954,10.472 0.651,1.828 0.049,3.25 -1.204,4.384 -2.796,2.528 -5.314,5.364 -8.674,7.278 -1.385,0.789 -2.83,1.88 -3.567,3.75 3.787,-0.458 7.325,-0.886 11.166,-1.351 -0.662,-0.909 -1.165,-1.601 -1.735,-2.383 1.693,-1.548 3.175,0.017 4.73,0.148 0.886,-0.548 0.128,-2.22 1.64,-2.409 0.948,0.105 1.265,0.901 1.506,1.673 0.395,0.051 0.7,0.089 1.029,0.132 0.202,0.487 0.395,0.952 0.589,1.422 m 4.831,2.433 c 0.236,-0.2 0.454,-0.296 0.509,-0.451 0.126,-0.357 0.224,-0.739 0.24,-1.116 0.08,-1.832 0.129,-3.666 0.19,-5.499 -0.163,-0.028 -0.326,-0.055 -0.489,-0.083 -0.983,0.894 -0.279,2.14 -0.54,3.185 -0.274,1.1 -0.556,2.198 -0.872,3.442 0.234,0.127 0.606,0.328 0.962,0.522 m 2.072,-8.393 c 0.458,-1.521 0.913,-2.856 1.257,-4.219 0.334,-1.315 0.556,-2.657 0.829,-4.002 -1.349,-1.514 -1.349,-1.514 -3.268,-2.321 -0.202,1.257 0.055,2.659 -1.19,3.677 -0.287,-0.134 -0.646,-0.25 -0.95,-0.452 -1.25,-0.832 -2.474,-1.704 -3.726,-2.534 -0.822,-0.545 -1.393,-1.271 -2.013,-2.043 -1.777,-2.21 -3.123,-4.669 -4.606,-7.056 -0.614,-0.988 -1.48,-1.83 -2.297,-2.674 -0.332,-0.345 -0.838,-0.522 -1.447,-0.882 v 2.852 c 1.634,0.702 2.471,2.227 3.394,3.637 1.501,2.293 2.837,4.698 4.376,6.964 0.603,0.888 1.497,1.631 2.386,2.26 1.383,0.98 2.876,1.805 4.253,2.653 0.243,1.195 0.461,2.275 0.719,3.539 0.666,0.175 1.383,0.364 2.283,0.601 M 78.719,9.346 c 0.582,-1.284 0.85,-2.714 1.23,-4.086 0.064,-0.231 -0.041,-0.509 -0.113,-1.204 -3.207,6.957 -5.801,13.689 -7.372,20.985 0.323,-0.184 0.68,-0.262 0.764,-0.457 0.308,-0.716 0.589,-1.456 0.768,-2.213 1.068,-4.527 2.81,-8.802 4.723,-13.025 M 75.688,23.63 c 2.243,1.287 4.728,2.102 7.245,2.031 2.024,-0.057 4.149,-0.695 6.01,-1.552 3.515,-1.617 6.642,-3.893 9.347,-6.702 0.731,-0.759 1.483,-1.499 1.253,-2.823 -0.478,-0.298 -1.018,-0.635 -1.588,-0.99 -1.136,0.856 -1.786,1.978 -2.3,3.178 -0.403,0.943 -1.029,1.643 -1.881,2.192 -1.583,1.02 -3.057,2.239 -5.059,2.398 -0.439,0.035 -0.896,0.237 -1.282,0.466 -2.15,1.268 -4.569,1.573 -6.958,1.809 -1.25,0.124 -2.609,-0.011 -3.779,-0.736 -0.437,-0.271 -0.906,-0.578 -1.49,0.041 0.148,0.222 0.257,0.558 0.482,0.688 M 96.684,1.414 c -0.154,-1.096 -0.245,-2.242 -0.648,-3.252 -0.574,-1.439 -1.308,-2.84 -2.153,-4.141 -2.206,-3.403 -5.607,-5.129 -9.302,-6.44 -4.447,-1.578 -8.596,-0.755 -12.608,1.404 -0.981,0.528 -1.944,1.087 -2.922,1.619 -2.401,1.307 -4.096,3.181 -4.814,5.873 -0.184,0.693 -0.422,1.378 -0.698,2.041 -1.277,3.068 -0.976,6.161 -0.033,9.209 0.596,1.927 1.301,3.849 2.209,5.645 1.387,2.741 3.557,4.711 6.619,5.836 2.104,-5.781 4.177,-11.242 6.603,-16.516 1.855,0.376 2.016,0.569 2.181,2.091 0.155,1.429 -0.289,2.721 -0.871,3.968 -1.548,3.318 -2.931,6.698 -3.973,10.209 -0.144,0.489 -0.181,1.009 -0.266,1.503 1.322,1.267 2.792,1.895 4.518,1.57 2.946,-0.553 5.876,-1.14 8.692,-2.257 2.428,-0.963 4.068,-2.497 5.426,-4.784 1.672,-2.818 2.229,-5.823 2.525,-8.917 C 97.314,4.55 96.901,2.964 96.684,1.414 M 60.725,4.965 C 60.56,4.835 60.273,4.571 59.948,4.369 59.742,4.241 59.478,4.207 59.162,4.106 58.379,5.17 58.898,6.23 59.231,7.105 c 1.069,2.801 2.183,5.602 3.542,8.269 0.693,1.359 1.834,2.556 2.977,3.604 1.579,1.447 3.349,2.685 5.043,4.005 0.09,0.07 0.237,0.068 0.611,0.166 0.177,-0.593 0.322,-1.074 0.463,-1.545 -0.15,-0.202 -0.239,-0.39 -0.385,-0.505 -0.358,-0.283 -0.716,-0.582 -1.12,-0.788 -2.206,-1.13 -3.876,-2.902 -5.439,-4.736 -0.825,-0.968 -1.358,-2.217 -1.886,-3.4 C 62.4,10.747 61.865,9.267 61.368,7.782 61.083,6.929 60.959,6.021 60.725,4.965 m -7.581,21.747 c -0.292,0.5 -0.443,1.081 -0.706,1.6 -0.5,0.984 -1.04,1.949 -1.555,2.925 -1.097,2.073 -2.198,4.142 -3.278,6.224 -0.623,1.203 -1.206,2.425 -1.624,3.852 0.278,-0.166 0.565,-0.319 0.832,-0.502 0.644,-0.443 1.221,-1.052 1.928,-1.326 2.789,-1.079 4.725,-3.212 6.746,-5.251 0.598,-0.602 1.163,-1.237 1.786,-1.812 0.903,-0.832 1.254,-1.828 0.945,-3.006 -0.265,-1.007 -0.525,-2.029 -0.943,-2.977 -0.683,-1.552 -1.482,-3.054 -2.259,-4.563 -0.129,-0.251 -0.396,-0.43 -0.853,-0.91 -0.042,0.898 -0.135,1.462 -0.082,2.012 0.132,1.367 -0.26,2.573 -0.937,3.734 M 54.97,-0.986 c -1.694,-1.519 -5.777,-2.716 -8.911,-2.601 0.046,0.446 0.079,0.76 0.129,1.238 1.393,0.452 2.771,1.087 4.213,1.313 1.459,0.228 2.982,0.05 4.569,0.05 M 43.569,20.276 c -0.849,1.748 -0.95,3.424 -1.098,5.313 1.411,-0.757 1.683,-2.136 2.558,-3.272 -0.513,-0.718 -0.919,-1.285 -1.46,-2.041 m 1.432,-9.503 c -0.529,0.639 -0.586,1.253 -10e-4,2.12 0.453,-0.874 0.327,-1.501 10e-4,-2.12 m 0.7,3.944 c -0.46,-0.194 -0.904,-0.383 -1.427,-0.604 -0.973,2.405 -0.749,4.451 1.164,6.253 1.109,-1.867 0.141,-3.722 0.263,-5.649 M 43.909,7.389 C 43.658,7.58 43.411,7.775 43.073,8.038 41.804,6.653 42.667,5.308 42.726,4.042 40.777,3.985 40.393,4.437 39.536,7.689 40.06,9.236 41.293,9.809 42.823,9.906 44.437,10.009 45.076,9.324 44.934,7.71 44.911,7.453 44.859,7.198 44.79,6.737 44.431,7.003 44.168,7.194 43.909,7.389 M 33.164,-1.176 C 31.971,-3.443 30.754,-5.759 28.904,-7.792 26.146,-4.16 23.031,-0.995 21.21,3.279 25.497,3.425 29.62,3.55 33.94,3.157 33.685,1.571 33.787,0.007 33.164,-1.176 M 22.695,-12.333 c -3.246,-0.78 -6.516,-0.583 -9.707,0.235 -1.802,0.462 -3.5,1.333 -5.445,2.098 2.04,4.354 5.472,7.547 8.103,11.545 1.726,-1.238 2.422,-2.893 3.392,-4.344 0.943,-1.412 1.959,-2.777 2.982,-4.134 1.044,-1.386 2.136,-2.736 3.369,-4.307 -1.034,-0.427 -1.833,-0.885 -2.694,-1.093 m 55.663,48.958 c -0.082,-1.838 -0.164,-3.662 -0.25,-5.584 -0.32,0.09 -0.622,0.165 -0.916,0.261 -0.675,0.221 -1.347,0.453 -1.973,0.665 -0.686,2.791 0.077,3.909 3.139,4.658 m 1.956,-0.459 c 0.219,-1.647 0.439,-3.293 0.689,-5.175 -0.496,-0.054 -0.802,-0.088 -1.257,-0.139 -0.818,1.874 -0.638,3.605 0.568,5.314 m -38.3,48.385 c -0.383,-0.325 -0.731,-0.699 -1.001,-1.1 -0.969,-1.437 -2.142,-2.861 -2.618,-4.472 -0.528,-1.783 -0.378,-3.771 0.354,-5.597 0.48,-1.194 0.979,-2.381 1.402,-3.409 -1.124,-1.533 -2.331,-2.857 -3.169,-4.384 -2.519,-4.586 -4.056,-9.462 -4.012,-14.778 0.023,-2.746 -0.145,-5.493 -0.28,-8.237 -0.047,-0.958 -0.255,-1.907 -0.366,-2.685 0.809,-0.928 2.287,-0.986 1.971,-2.307 -0.572,-0.768 -1.06,-1.422 -1.489,-1.999 0.845,-1.69 3.355,-0.937 3.748,-3.048 -0.74,-0.074 -1.381,-0.139 -2.154,-0.216 -0.87,-1.351 -1.618,-2.833 -2.668,-4.056 -1.086,-1.267 -1.857,-2.871 -3.402,-3.695 -0.258,0.067 -0.481,0.064 -0.626,0.17 -1.85,1.348 -3.971,1.924 -6.188,2.327 -2.499,0.455 -4.985,0.527 -7.525,0.447 C 11.636,27.437 9.478,26.909 7.372,25.956 6.836,25.714 6.299,25.459 5.738,25.291 4.521,24.927 3.449,24.352 2.55,23.436 2.239,23.12 1.801,22.935 1.437,22.666 0.286,21.813 -0.897,20.997 -1.986,20.069 -2.514,19.62 -3.018,19.371 -3.702,19.264 -5.178,19.036 -6.634,18.686 -7.989,18.408 -8.7,16.754 -8.809,12.377 -8.232,10.491 c 0.45,-0.117 0.942,-0.246 1.449,-0.378 0.212,-0.906 0.097,-1.923 1.195,-2.509 0.44,0.023 1,0.052 1.768,0.092 C -3.923,6.87 -3.984,6.105 -4.119,5.354 -4.33,4.184 -4.403,3.053 -4.047,1.873 c 0.863,-2.871 1.612,-5.777 3.061,-8.435 0.407,-0.747 0.758,-1.525 1.168,-2.272 0.309,-0.567 0.363,-1.119 0.018,-1.673 -0.878,-1.409 -4.787,-6.402 -1.26,-6.842 0.312,-0.039 0.639,0.061 0.959,0.067 2.814,0.051 5.627,0.188 8.411,-0.455 1.071,-0.248 2.26,-0.648 3.262,-0.411 2.841,0.67 5.713,0.315 8.548,0.415 3.686,0.129 7.39,0.317 11.092,0.171 0.847,-0.034 1.709,0.347 2.847,0.601 -0.986,1.877 -1.841,3.507 -2.729,5.199 2.431,1.801 3.15,4.546 4.169,7.067 1.043,2.583 1.798,5.283 2.736,8.102 0.284,0.05 0.832,0.309 1.291,0.196 1.497,-0.368 2.962,-0.872 4.428,-1.32 -0.305,-1.78 -0.552,-3.475 0.822,-4.571 0.385,-1.082 -0.363,-2.038 0.355,-2.836 0.767,0.082 1.467,0.157 2.271,0.243 -0.142,-0.48 -0.243,-0.818 -0.361,-1.218 0.534,-0.417 1.038,-0.81 1.514,-1.181 1.278,0.481 2.44,0.92 3.603,1.356 1.866,0.701 2.052,0.947 2.198,3.059 0.665,0.263 1.408,0.506 2.105,0.843 1.177,0.569 1.288,1.205 0.413,2.625 -0.689,-0.132 -1.439,-0.361 -2.198,-0.395 -0.726,-0.033 -1.497,-0.7 -2.179,0.016 0.471,3.789 0.935,7.528 1.427,11.484 2.103,1.227 3.842,3.159 5.127,5.483 0.978,1.771 2.055,3.461 3.201,5.133 1.643,2.398 4.132,3.485 6.387,4.985 0.983,-1.248 0.571,-2.52 0.693,-3.778 -1.329,-1.023 -2.678,-1.95 -3.896,-3.025 -1.716,-1.512 -3.443,-3.03 -4.318,-5.262 -1.025,-2.616 -2.18,-5.181 -3.164,-7.812 -0.428,-1.142 -0.819,-2.369 -0.317,-3.771 0.554,-0.36 1.197,-0.778 1.9,-1.235 -0.14,-2.343 0.536,-4.533 1.482,-6.623 0.802,-1.773 1.711,-3.513 2.75,-5.157 0.502,-0.795 1.303,-1.567 2.15,-1.949 2.881,-1.3 5.394,-3.364 8.664,-3.884 2.77,-0.44 5.516,-1.048 8.329,-0.843 1.277,0.093 2.606,0.319 3.782,0.799 2.877,1.172 5.315,3.064 7.594,5.15 0.432,0.395 0.814,0.857 1.163,1.328 0.74,0.994 1.401,2.049 2.172,3.018 1.618,2.036 2.887,4.21 2.955,6.895 0.025,0.968 -0.064,1.939 -0.063,2.909 0.006,2.923 0.359,5.876 -0.881,8.593 1.566,1.93 1.681,3.213 0.126,4.934 -1.216,1.345 -2.7,2.449 -4.087,3.635 -0.495,0.424 -1.044,0.789 -1.583,1.159 -1.018,0.699 -2.058,1.366 -3.069,2.076 -1.804,1.27 -3.917,1.762 -6,2.208 -1.377,0.295 -2.912,0.442 -4.263,0.143 -2.003,-0.443 -3.906,-1.339 -5.981,-2.089 -0.422,0.278 -0.592,0.916 -0.276,1.423 0.703,1.129 0.256,2.136 -0.078,3.195 -0.141,0.446 -0.201,0.916 -0.315,1.454 1.666,-0.606 3.163,-1.05 4.575,-1.685 2.392,-1.079 3.514,-0.377 3.308,2.241 -0.107,1.362 -0.266,2.726 -0.519,4.067 -0.177,0.934 -0.261,1.952 -0.989,2.652 -3.696,-0.085 -4.064,-0.263 -7.205,-3.502 -0.362,1.12 -0.496,2.372 -1.984,2.724 0,1.565 -0.167,3.087 0.041,4.556 0.283,2.009 -0.536,3.236 -2.185,4.171 -0.912,0.518 -1.797,0.711 -2.812,0.378 -1.148,-0.377 -2.105,-0.076 -3.077,0.69 -0.794,0.625 -1.79,1.169 -2.77,1.349 -2.435,0.449 -4.906,0.769 -7.377,0.94 -1.204,0.083 -2.276,0.38 -3.256,0.747 -0.715,2.026 -1.383,3.916 -2.04,5.771 1.539,1.162 1.541,1.162 1.029,2.952 -0.073,0.252 -0.172,0.495 -0.242,0.748 -0.676,2.441 -1.348,4.883 -2.017,7.308 1.054,0.655 1.881,1.312 2.818,1.719 1.771,0.77 2.966,1.89 2.94,3.852 0.166,0.174 0.237,0.291 0.342,0.352 1.653,0.956 1.823,1.606 0.587,2.967 -0.689,0.759 -0.927,1.602 -0.79,2.526 0.389,2.594 -0.922,4.382 -2.717,5.944 -1.995,1.735 -5.015,2.091 -7.07,0.788 -0.234,-0.149 -0.465,-0.318 -0.684,-0.504"
         style="fill:#000000;fill-opacity:1;fill-rule:nonzero;stroke:none"
         id="path1876"
         inkscape:connector-curvature="0" />
    </g>
  </g>
</svg>
