<?xml version="1.0" encoding="UTF-8" standalone="no"?>
<!-- Created with Inkscape (http://www.inkscape.org/) -->

<svg
   xmlns:dc="http://purl.org/dc/elements/1.1/"
   xmlns:cc="http://creativecommons.org/ns#"
   xmlns:rdf="http://www.w3.org/1999/02/22-rdf-syntax-ns#"
   xmlns:svg="http://www.w3.org/2000/svg"
   xmlns="http://www.w3.org/2000/svg"
   xmlns:sodipodi="http://sodipodi.sourceforge.net/DTD/sodipodi-0.dtd"
   xmlns:inkscape="http://www.inkscape.org/namespaces/inkscape"
   width="37mm"
   height="26mm"
   viewBox="0 0 37 26"
   version="1.1"
   id="svg1135"
   inkscape:version="0.92.5 (2060ec1f9f, 2020-04-08)"
   sodipodi:docname="velo6.svg">
  <defs
     id="defs1129" />
  <sodipodi:namedview
     id="base"
     pagecolor="#ffffff"
     bordercolor="#666666"
     borderopacity="1.0"
     inkscape:pageopacity="0.0"
     inkscape:pageshadow="2"
     inkscape:zoom="2.8"
     inkscape:cx="80.099578"
     inkscape:cy="72.794757"
     inkscape:document-units="mm"
     inkscape:current-layer="layer1"
     showgrid="false"
     inkscape:window-width="960"
     inkscape:window-height="983"
     inkscape:window-x="960"
     inkscape:window-y="27"
     inkscape:window-maximized="0" />
  <metadata
     id="metadata1132">
    <rdf:RDF>
      <cc:Work
         rdf:about="">
        <dc:format>image/svg+xml</dc:format>
        <dc:type
           rdf:resource="http://purl.org/dc/dcmitype/StillImage" />
        <dc:title></dc:title>
      </cc:Work>
    </rdf:RDF>
  </metadata>
  <g
     inkscape:label="Calque 1"
     inkscape:groupmode="layer"
     id="layer1"
     transform="translate(0,-271)">
    <g
       id="g1866"
       transform="matrix(0.26121742,0,0,-0.26121742,5.4512499,285.00282)"
       style="fill:#000000">
      <path
         d="m 0,0 c -0.83,0.162 -1.524,0.619 -2.034,-0.212 -0.078,-1.172 0.834,-1.154 1.552,-1.33 0.216,-0.054 0.466,0.027 0.799,0.055 C 0.201,-0.943 0.11,-0.516 0,0 m 23.658,-40.974 c 0.022,-0.086 0.044,-0.171 0.066,-0.256 h 3.592 c -0.693,0.64 -1.082,0.999 -1.438,1.328 -0.847,-0.409 -1.533,-0.741 -2.22,-1.072 M 3.954,-41.279 c 1.168,-0.124 2.046,-1.19 3.187,-0.252 -2.169,1.7 -2.316,1.723 -3.187,0.252 M 3.807,-1.203 C 3.613,-0.725 3.46,-0.345 3.296,0.062 H 1.021 c 0.33,-0.583 0.593,-1.05 0.868,-1.536 0.666,0.095 1.221,0.173 1.918,0.271 m 28.046,-0.598 c -1.108,0.546 -1.83,1.15 -2.945,1.366 0.362,-1.2 0.863,-1.973 1.899,-2.481 0.289,0.309 0.572,0.61 1.046,1.115 m -18.585,1.614 c -1.24,0.905 -2.526,0.554 -3.857,0.469 0.035,-0.732 0.319,-0.948 0.873,-0.87 0.994,0.138 1.989,0.267 2.984,0.401 m 31.41,-23.041 c 1.048,0.77 1.931,1.582 1.922,3.06 -2.213,-1.233 -2.554,-1.759 -1.922,-3.06 M 24.537,1.079 C 23.322,1.825 22.239,1.876 21.02,1.437 21.09,1.032 21.15,0.685 21.205,0.368 22.447,0.059 23.443,0.315 24.537,1.079 M 8.041,-0.669 C 8.034,-0.478 8.027,-0.286 8.02,-0.095 7.149,0.475 6.181,0.508 5.011,0.301 c 0.067,-0.545 0.126,-1.018 0.215,-1.739 1.045,0.286 1.93,0.527 2.815,0.769 M 44.08,-32.617 c 1.142,0.099 2.207,0.122 2.885,1.228 -1.135,0.733 -2.272,0.671 -3.565,0.475 0.241,-0.603 0.449,-1.124 0.68,-1.703 m -9.323,14.097 c 0.777,0.882 1.321,1.497 1.881,2.131 -0.808,0.533 -1.594,1.052 -2.744,1.81 0.33,-1.505 0.57,-2.602 0.863,-3.941 m 4.5,-15.23 c 1.139,0.242 1.979,0.42 2.825,0.6 -0.184,0.713 -0.311,1.208 -0.454,1.762 h -2.643 c 0.091,-0.79 0.161,-1.406 0.272,-2.362 M 19.981,0.172 C 19.669,0.626 19.485,1.163 19.252,1.186 17.755,1.329 16.21,1.54 14.849,0.433 c 1.156,-0.714 2.566,-0.792 5.132,-0.261 m 15.017,-20.065 c -0.264,-1.475 -0.496,-2.776 -0.762,-4.266 1.447,0.178 2.932,-0.391 3.97,0.919 -0.394,0.886 -0.756,1.698 -1.121,2.519 -0.626,0.248 -1.278,0.507 -2.087,0.828 m 28.33,25.647 c 0.394,0.412 0.716,0.748 1.159,1.212 -1.185,0.354 -1.704,-0.651 -2.485,-0.73 -0.864,-0.088 -1.743,-0.02 -2.476,-0.02 -0.441,-1.454 -0.85,-2.8 -1.358,-4.472 1.962,1.271 4.263,0.748 5.725,2.441 -0.188,0.521 -0.36,0.999 -0.565,1.569 M 30.813,-9.35 c 0.833,-1.279 1.66,-2.546 2.524,-3.873 1.152,1 1.605,2.14 2.039,3.166 -0.23,0.876 -0.409,1.632 -0.628,2.376 -0.213,0.725 -0.465,1.439 -0.748,2.302 -1.477,-1.108 -2.273,-2.487 -3.187,-3.971 m 4.442,-4.209 c 0.478,-0.941 1.314,-1.409 2.25,-1.749 2.035,-0.739 4.147,-1.02 6.298,-1.031 0.543,-0.003 1.086,0.111 2.082,0.223 -0.668,0.666 -0.947,1.13 -1.355,1.32 -2.232,1.039 -4.494,2.016 -6.75,3.004 -0.796,0.35 -1.381,0.053 -1.814,-0.647 -0.231,-0.373 -0.469,-0.739 -0.711,-1.12 m 12.857,3.766 c -1.607,-0.81 -3.952,-2.494 -4.476,-3.197 3.337,-1.726 3.509,-1.894 3.578,-3.69 -2.443,-0.473 -4.473,-1.911 -6.707,-3.284 0.276,-0.669 0.561,-1.356 0.89,-2.152 0.592,0.255 1.063,0.345 1.384,0.614 1.099,0.918 2.212,1.834 3.188,2.875 0.74,0.789 1.492,1.689 1.861,2.68 0.735,1.972 0.679,4.055 0.282,6.154 M 36.259,-25.647 c -0.887,0.117 -1.264,0.18 -1.644,0.214 -2.845,0.254 -5.694,0.479 -8.537,0.76 -2.262,0.224 -4.517,0.515 -6.776,0.772 -0.857,0.097 -1.663,0.053 -2.19,-0.823 0.165,-0.198 0.264,-0.44 0.409,-0.472 2.53,-0.558 4.994,-1.451 7.66,-1.295 1.421,0.083 2.881,0.081 4.279,-0.149 1.975,-0.326 3.89,0.015 5.825,0.176 0.222,0.018 0.419,0.338 0.974,0.817 m 2.571,0.874 c -0.914,-0.839 -1.588,-1.665 -1.843,-2.784 -0.185,-0.814 -0.008,-1.718 0.708,-2.022 1.354,-0.573 2.766,-1.046 4.267,-0.338 1.716,0.812 2.665,2.197 3.142,3.973 -0.989,1.915 -1.615,2.409 -3.143,2.481 0.733,-2.914 0.278,-3.993 -1.692,-3.798 -0.451,0.779 -0.923,1.595 -1.439,2.488 M 37.579,1 c 0.124,-0.491 0.427,-1.041 0.361,-1.543 -0.24,-1.86 0.856,-3.153 1.7,-4.847 2.455,2.293 4.737,4.425 7.108,6.64 C 45.321,1.834 43.85,1.403 42.381,1.279 40.78,1.143 39.173,1.089 37.579,1 m -1.286,-9.268 c 0.92,0.215 1.164,0.762 0.946,1.472 -0.567,1.857 -1.175,3.702 -1.815,5.535 -0.104,0.299 -0.454,0.511 -0.608,0.675 -0.862,-0.894 -1.628,-1.667 -2.367,-2.464 -0.261,-0.281 -0.512,-0.594 -0.677,-0.935 -0.675,-1.402 -1.253,-2.86 -2.641,-3.765 -0.149,-0.096 -0.201,-0.328 -0.318,-0.484 -0.841,-1.132 -1.584,-2.363 -2.556,-3.37 -2.209,-2.288 -4.579,-4.419 -6.791,-6.705 -1.169,-1.208 -2.159,-2.591 -3.188,-3.928 -0.2,-0.26 -0.203,-0.671 -0.399,-1.388 0.668,0.463 1.057,0.659 1.351,0.95 1.29,1.274 2.556,2.571 3.82,3.87 0.312,0.32 0.588,0.676 0.873,1.022 2.04,2.484 4.098,4.954 6.112,7.461 2.019,2.511 3.99,5.059 6.128,7.777 0.224,-0.053 0.688,-0.16 1.211,-0.281 -0.117,-1.971 0.389,-3.679 0.919,-5.442 m -5.411,-19.366 c -1.861,0 -3.483,0.047 -5.1,-0.013 -1.439,-0.054 -2.848,0.007 -4.23,0.443 -0.643,0.203 -1.295,0.349 -2.276,0.087 2.497,-2.823 4.829,-5.384 7.71,-7.511 1.708,2.053 3.613,3.859 3.896,6.994 M 65.987,-0.13 c -1.585,-1.554 -2.841,-3.452 -4.776,-4.706 -1.968,-1.275 -3.775,-2.768 -5.114,-4.698 -1.051,-1.514 -2.373,-2.739 -3.641,-4.038 -1.179,-1.209 -2.307,-2.469 -3.426,-3.734 -0.209,-0.236 -0.269,-0.603 -0.398,-0.909 0.425,0.017 0.629,0.161 0.797,0.34 2.49,2.644 4.995,5.268 7.649,7.758 2.362,2.217 4.504,4.667 6.779,6.979 0.887,0.903 1.872,1.709 2.741,2.495 0.928,-0.514 1.637,-0.906 2.545,-1.408 C 68.991,0.656 69.279,3.16 67.36,5.13 66.675,5.075 66.107,5.029 65.426,4.974 65.515,3.769 65.224,2.819 64.035,2.444 62.799,2.054 61.549,1.707 60.318,1.3 59.214,0.935 58.116,0.542 57.04,0.1 c -0.269,-0.11 -0.443,-0.453 -0.948,-1 0.803,0.193 1.177,0.262 1.537,0.374 1.792,0.555 3.573,1.145 5.371,1.678 1.53,0.454 1.724,0.353 2.987,-1.282 M 63.71,-0.229 c -0.852,-0.153 -1.478,-0.193 -2.054,-0.383 -1.599,-0.528 -3.14,-1.324 -4.776,-1.623 -1.513,-0.277 -2.524,-1.125 -3.289,-2.207 -0.996,-1.406 -2.25,-2.487 -3.534,-3.571 -0.338,-0.285 -0.648,-0.601 -1.04,-0.967 0.302,-0.833 0.694,-1.597 0.841,-2.406 0.142,-0.779 0.031,-1.603 0.031,-2.714 1.124,1.022 2.066,1.863 2.989,2.725 0.424,0.396 0.847,0.802 1.208,1.253 1.913,2.38 3.799,4.744 6.462,6.414 1.21,0.758 2.323,1.835 3.162,3.479 m -7.433,40.207 c 0.75,0.314 1.382,0.577 2.204,0.921 -1.363,1.159 -2.097,2.384 -2.348,3.952 -0.125,0.788 -0.682,1.507 -1.144,2.468 -0.981,-1.166 -1.777,-2.182 -2.648,-3.129 -0.939,-1.022 -1.757,-2.068 -1.994,-3.501 -0.178,-1.078 -0.822,-1.891 -1.793,-2.421 -0.449,-0.245 -0.896,-0.491 -1.612,-0.883 2.177,-0.561 2.508,-2.413 3.316,-4.086 1.325,1.899 3.7,1.166 5.106,2.584 0.31,1.388 0.62,2.778 0.913,4.095 M 29.993,-5.03 c -0.882,1.569 -1.606,2.876 -2.35,4.173 -0.307,0.533 -0.745,0.946 -1.411,0.866 -0.899,-0.108 -1.818,-0.188 -2.679,-0.446 -1.832,-0.55 -3.696,-0.636 -5.587,-0.677 -2.463,-0.053 -4.928,-0.164 -7.384,-0.36 C 7.936,-1.686 5.299,-2.018 2.661,-2.318 2.438,-2.344 2.231,-2.53 1.92,-2.692 c 0.391,-0.83 0.738,-1.569 1.147,-2.44 1.012,0.321 1.923,0.478 2.704,0.885 1.983,1.035 4.042,1.604 6.281,1.876 2.123,0.258 4.186,0.165 6.128,-0.499 3.304,-1.129 6.58,-2.411 9.38,-4.999 0.845,0.987 1.628,1.901 2.433,2.839 m -1.837,-7.781 c -0.886,-0.112 -1.444,-0.721 -1.932,-1.43 -0.256,-0.372 -0.461,-0.796 -0.776,-1.109 -2.066,-2.058 -3.55,-4.645 -5.883,-6.462 -0.174,-0.135 -0.237,-0.414 -0.357,-0.636 2.523,-1.01 9.841,-1.817 12.295,-1.381 0.387,3.685 -1.288,9.256 -3.347,11.018 m 23.976,32.86 c -0.111,1.626 -0.614,3.204 -1.608,4.868 -0.946,-0.823 -1.836,-1.558 -2.68,-2.345 -0.507,-0.473 -0.697,-1.065 -0.431,-1.775 0.386,-1.03 0.723,-2.078 1.176,-3.395 4.736,-1.662 9.667,-2.825 14.554,-3.172 1.032,-0.762 1.823,-1.614 2.797,-1.994 1.076,-0.418 1.098,-2.056 2.692,-1.905 0.21,0.499 0.377,1.124 0.714,1.638 0.364,0.556 0.885,1.009 1.34,1.508 -0.852,1.088 -1.324,1.603 -2.665,1.628 -2.156,0.041 -4.05,0.768 -5.951,1.617 -0.287,0.128 -0.648,0.083 -0.952,0.187 -2.202,0.752 -4.399,1.52 -6.597,2.286 -0.708,0.247 -1.413,0.504 -2.389,0.854 M 41.945,10.854 c 0.755,0 1.391,-0.084 1.995,0.017 1.627,0.272 3.236,0.261 4.857,-0.032 0.637,-0.114 1.295,-0.161 1.942,-0.153 1.887,0.022 3.724,-0.069 5.578,-0.615 1.444,-0.425 2.52,-1.005 2.878,-2.404 1.683,1.298 3.296,2.542 4.912,3.788 -1,1.219 -2.143,1.786 -3.632,1.623 -0.369,-0.04 -0.761,0.124 -1.142,0.201 -2.471,0.498 -4.934,1.039 -7.415,1.484 -2.186,0.391 -4.119,1.108 -5.032,3.267 -0.976,-0.489 -1.823,-0.943 -2.697,-1.343 -0.691,-0.316 -1.258,-0.781 -1.427,-1.506 -0.32,-1.366 -0.529,-2.758 -0.817,-4.327 M 14.452,-26.671 c -2.301,-4.108 -4.97,-7.466 -7.861,-10.605 0.213,-0.25 0.275,-0.389 0.381,-0.438 3.765,-1.773 7.758,-2.066 11.822,-1.695 1.78,0.162 3.294,0.993 4.578,2.471 -2.973,3.422 -5.886,6.774 -8.92,10.267 m 57.197,41.452 c 0.715,-1.51 1.501,-2.972 -0.183,-4.01 0.163,-1.804 0.253,-3.479 0.479,-5.136 0.271,-1.97 0.355,-3.996 1.313,-5.849 2.846,-0.221 5.611,-0.241 8.143,1.19 1.187,4.252 1.132,12.767 -0.088,15.741 -2.141,0.013 -7.577,-1.046 -9.664,-1.936 M 25.748,-10.448 c -1.655,1.383 -3.245,2.624 -5.136,3.284 -2.065,0.721 -4.195,1.328 -6.345,1.716 -2.034,0.366 -3.954,-0.399 -5.791,-1.257 -1.04,-0.485 -2.185,-0.833 -2.78,-2.164 1.527,-2.066 3.117,-4.114 4.59,-6.242 1.498,-2.164 2.376,-4.728 4.124,-6.785 0.281,0.222 0.465,0.313 0.574,0.46 2.368,3.196 5.147,5.983 8.246,8.472 0.89,0.715 1.629,1.618 2.518,2.516 M 13.272,-23.222 c -2.153,4.948 -4.896,9.594 -8.632,13.83 -0.808,-0.79 -1.499,-1.567 -2.292,-2.219 -1.617,-1.329 -2.263,-3.111 -2.61,-5.081 -0.346,-1.976 -0.784,-3.936 -1.105,-5.916 -0.177,-1.084 -0.411,-2.228 -0.245,-3.286 0.549,-3.48 2.227,-6.403 4.817,-8.94 0.477,0.562 0.885,1.051 1.301,1.534 1.697,1.967 3.479,3.869 5.068,5.922 1.096,1.416 1.875,3.084 3.613,3.895 0.039,0.018 0.041,0.117 0.085,0.261 M 39.323,31.22 C 39.207,28.978 38.238,27.562 36.566,26.516 36,26.162 35.557,25.495 35.242,24.877 34.065,22.565 32.93,20.23 31.847,17.873 c -0.82,-1.785 -1.23,-3.688 -1.289,-5.656 -0.02,-0.648 -0.079,-1.332 0.565,-1.687 3.253,0.227 6.444,0.45 9.71,0.678 0.19,1.167 0.366,2.249 0.543,3.332 0.235,1.446 0.585,2.668 2.248,3.309 0.922,0.355 2.247,0.832 2.34,2.411 -0.633,0.136 -1.239,0.268 -1.885,0.407 -0.619,1.512 -1.242,3.005 -1.834,4.511 -0.082,0.209 -0.012,0.478 -0.012,0.781 h 0.983 c 0.597,-1.441 1.16,-2.799 1.796,-4.334 2.142,1.858 4.125,3.576 6.07,5.262 -0.734,2.338 -1.426,4.501 -2.093,6.672 -0.633,2.06 -0.832,2.197 -3.047,1.928 -1.48,-2.428 -3.376,-4.248 -6.619,-4.267 M 30.641,5.47 c 0.202,-0.166 0.509,-0.552 0.911,-0.726 1.841,-0.8 3.678,-1.626 5.577,-2.266 0.886,-0.3 1.959,-0.438 2.856,-0.239 3.417,0.757 6.94,0.098 10.334,0.953 0.099,-1.029 0.121,-1.06 -0.293,-1.368 -0.887,-0.66 -1.821,-1.26 -2.697,-1.933 -1.225,-0.942 -2.499,-1.843 -3.601,-2.916 -2.004,-1.949 -3.902,-4.007 -5.831,-6.032 -0.29,-0.304 -0.51,-0.676 -0.831,-1.108 0.989,-0.417 1.82,-0.767 2.65,-1.12 1.412,-0.6 2.706,-0.517 4.085,0.293 2.705,1.589 5.056,3.613 7.456,5.596 1.337,1.104 2.282,2.447 3.063,3.978 0.491,0.963 1.261,1.779 1.852,2.696 0.561,0.87 1.182,1.735 1.549,2.69 0.983,2.559 0.149,4.24 -2.43,5.114 -0.484,0.164 -1.002,0.276 -1.512,0.313 -0.893,0.064 -1.795,0.008 -2.687,0.081 -1.418,0.115 -2.831,0.43 -4.244,0.417 C 44.336,9.871 41.85,9.549 39.309,9.862 37.261,10.114 35.147,9.822 33.063,9.792 32.192,9.78 31.392,9.609 30.641,8.97 Z M 68.623,-7.809 c -1.493,-0.639 -2.421,-1.957 -3.596,-2.944 -1.47,-1.235 -2.59,-2.724 -2.889,-4.716 -0.065,-0.43 -0.41,-0.809 -0.558,-1.236 -0.46,-1.34 -1.105,-2.638 -0.794,-4.143 0.17,-0.819 0.327,-1.671 0.28,-2.496 -0.086,-1.535 0.226,-2.961 0.805,-4.357 0.372,-0.897 0.709,-1.809 1.092,-2.702 0.968,-2.258 3.408,-5.032 5.541,-6.348 0.718,-0.443 1.428,-0.902 2.125,-1.377 1.467,-1 3.192,-1.376 4.827,-1.13 4.014,0.604 8.14,1.028 11.486,3.741 0.049,0.04 0.131,0.04 0.177,0.081 1.291,1.175 2.865,2.162 3.813,3.569 2.305,3.43 3.673,7.22 2.983,11.485 -0.041,0.255 -0.013,0.52 -0.02,0.781 -0.073,2.506 -0.893,4.707 -2.659,6.523 -0.362,0.373 -0.715,0.754 -1.075,1.129 -0.893,0.931 -1.7,1.976 -2.71,2.76 -1.015,0.787 -2.22,1.34 -3.365,1.95 -3.937,2.093 -8.041,2.29 -12.26,1.02 -0.3,-0.09 -0.569,-0.281 -0.807,-0.401 -0.253,-1.26 -0.252,-1.259 0.144,-2.116 1.527,-3.299 2.921,-6.651 5.287,-9.509 0.84,-1.014 1.264,-2.393 1.785,-3.644 0.237,-0.568 0.098,-1.203 -0.572,-1.475 -0.549,-0.222 -1.03,-0.026 -1.331,0.494 -1.488,2.573 -3.061,5.104 -4.423,7.742 -1.182,2.291 -2.125,4.706 -3.286,7.319 m 28.071,-16.109 c -0.235,-1.225 -0.539,-2.444 -0.83,-3.669 -0.459,-1.931 -1.361,-3.664 -2.381,-5.321 -0.53,-0.86 -1.356,-1.554 -2.116,-2.25 -0.718,-0.657 -1.489,-1.272 -2.298,-1.812 -2.853,-1.905 -5.516,-4.177 -9.125,-4.621 -2.471,-0.304 -4.893,-0.317 -7.342,0.315 -2.706,0.697 -5.114,1.848 -7.203,3.71 -1.201,1.071 -2.822,1.656 -3.645,3.168 -0.431,0.79 -0.886,1.566 -1.313,2.358 -0.707,1.312 -1.44,2.613 -2.083,3.956 -0.332,0.695 -0.561,1.458 -0.715,2.214 -0.232,1.143 -0.539,2.316 -0.482,3.459 0.073,1.469 0.411,2.937 0.755,4.376 0.239,1.004 0.604,1.997 1.053,2.926 0.476,0.982 1.087,1.905 1.698,2.813 0.831,1.233 1.736,2.414 2.577,3.64 1.002,1.461 2.069,2.837 3.753,3.579 0.274,0.121 0.528,0.29 0.964,0.534 -0.795,0.548 -1.42,0.979 -2.148,1.481 -0.433,-0.388 -0.88,-0.75 -1.282,-1.156 -2.924,-2.963 -5.872,-5.902 -8.743,-8.915 -2.426,-2.545 -4.864,-5.092 -7.1,-7.8 -1.972,-2.387 -2.433,-5.356 -2.648,-8.409 1.561,-0.679 3.49,-0.887 3.067,-3.293 -0.479,-0.35 -0.995,-0.727 -1.473,-1.076 -0.526,-2.808 -0.527,-2.796 -3.321,-3.073 -1.33,-0.131 -2.647,-0.296 -3.417,1.093 -0.728,0.054 -1.374,0.102 -2.074,0.154 -1.013,1.295 -1.099,2.869 -1.297,3.865 -1.022,1.386 -1.767,2.396 -2.715,3.682 0.021,-0.005 -0.34,0.084 -0.625,0.154 -0.202,-0.165 -0.362,-0.23 -0.39,-0.331 -0.597,-2.152 -1.448,-4.126 -3.037,-5.801 -0.868,-0.915 -1.363,-2.183 -2.058,-3.343 0.483,-2.124 2.503,-3.408 3.24,-5.556 -0.414,-0.511 -0.857,-1.058 -1.17,-1.444 -1.216,-0.199 -2.234,-0.386 -3.257,-0.521 -0.379,-0.05 -0.788,-0.036 -1.16,0.048 -1.787,0.402 -3.588,0.403 -5.402,0.326 -1.107,-0.047 -2.218,-0.038 -3.327,-0.041 -5.345,-0.015 -10.69,-0.017 -16.035,-0.05 -0.636,-0.004 -1.274,-0.145 -1.903,-0.261 -3.318,-0.611 -3.093,1.979 -1.247,3.666 1.04,0.949 1.983,2.283 2.755,3.459 -0.836,0.912 -1.653,1.806 -2.474,2.696 -0.176,0.191 -0.455,0.333 -0.54,0.553 -1.082,2.818 -2.847,5.32 -2.822,8.622 0.02,2.655 0.433,5.149 1.09,7.661 0.049,0.188 0.161,0.37 0.169,0.558 0.142,3.442 1.949,6.116 3.908,8.761 0.673,0.909 1.022,2.058 1.579,3.222 -0.421,0.884 -0.891,1.87 -1.346,2.826 -0.747,0.171 -1.462,0.262 -2.126,0.498 -1.969,0.701 -2.238,1.714 -1.005,3.556 0.125,0.035 0.254,0.107 0.375,0.096 4.613,-0.381 9.223,0.244 13.837,0.059 0.824,-0.033 1.67,0.187 2.489,0.363 3.647,0.782 7.345,0.889 11.053,1.072 2.081,0.103 3.451,-0.864 4.825,-2.072 0.332,-0.292 0.54,-0.724 0.768,-1.04 1.048,0.267 1.837,0.467 2.833,0.721 -0.709,0.899 -1.306,1.656 -1.903,2.413 0.061,0.057 0.12,0.113 0.181,0.168 -0.501,0.293 -1.01,0.571 -1.5,0.88 -1.161,0.734 -1.806,1.628 -1.215,3.108 0.229,0.57 0.222,1.295 0.133,1.922 -0.576,4.109 0.198,7.945 2.182,11.567 0.561,1.025 1.085,2.073 1.572,3.135 0.348,0.759 0.608,1.558 0.94,2.428 -1.135,0.547 -2.167,1.045 -3.245,1.565 0.053,0.624 0.196,1.142 0.11,1.62 -0.086,0.488 -0.397,0.936 -0.698,1.594 0.41,0.424 0.781,0.968 1.291,1.292 0.692,0.44 0.952,0.889 0.856,1.749 -0.154,1.371 1.195,3.433 2.546,3.75 0.857,0.2 1.277,0.686 1.818,1.248 0.751,0.779 1.565,1.573 2.88,1.203 0.809,-0.228 1.326,0.349 1.866,1.037 -0.433,0.863 -0.051,1.656 0.523,2.374 0.41,0.514 0.619,1.056 0.795,1.704 0.305,1.112 0.695,2.334 1.44,3.155 0.742,0.818 1.954,1.218 2.982,1.759 0.275,0.145 0.682,0.051 0.942,0.208 2.72,1.648 4.902,0.214 6.932,-1.343 1.083,-0.831 1.551,-2.236 1.873,-3.572 0.394,-1.632 0.897,-3.144 2.625,-3.692 0.403,-2.101 -1.553,-1.901 -2.507,-2.946 -0.231,-0.838 -0.597,-1.885 -0.792,-2.962 -0.162,-0.884 -0.636,-1.404 -1.403,-1.724 -1.02,-0.424 -2.052,-0.823 -3.188,-1.276 -0.25,-0.565 -0.537,-1.213 -0.729,-1.646 0.723,-3.284 1.401,-6.365 2.052,-9.323 2.037,-1.791 4.455,-2.438 6.793,-3.209 2.073,-0.683 4.132,-1.455 6.235,-1.991 3.149,-0.802 6.359,-1.025 9.575,-0.024 1.974,0.615 4.025,0.987 6.21,1.509 0.252,-0.67 0.598,-1.183 0.62,-1.709 0.172,-4.23 0.311,-8.46 0.388,-12.693 C 83.003,2.919 82.807,2.049 82.513,1.273 82.325,0.778 81.851,0.289 81.379,0.024 79.779,-0.873 78.086,-1.504 76.193,-1.438 74.901,-1.393 73.605,-1.43 72.138,-1.43 70.849,1.858 71.029,5.27 70.549,8.677 70.213,8.935 69.813,9.243 69.41,9.554 69.008,8.685 67.389,8.462 68.339,6.707 c 0.94,-0.621 1.552,-1.775 1.398,-3.378 -0.071,-0.744 0.257,-1.526 0.411,-2.288 0.356,-1.757 0.577,-3.514 -0.038,-5.206 2.121,0.388 4.125,0.872 6.159,1.102 3.734,0.422 7.186,-0.861 10.641,-2.029 1.52,-1.32 3.071,-2.606 4.548,-3.972 1.001,-0.927 1.959,-1.917 2.824,-2.971 1.068,-1.301 1.876,-2.733 2.352,-4.409 0.725,-2.557 0.53,-5.025 0.06,-7.474"
         style="fill:#000000;fill-opacity:1;fill-rule:nonzero;stroke:none"
         id="path1868"
         inkscape:connector-curvature="0" />
    </g>
  </g>
</svg>
